<?xml version="1.0" encoding="UTF-8" standalone="no"?>
<!DOCTYPE svg PUBLIC "-//W3C//DTD SVG 1.1//EN" "http://www.w3.org/Graphics/SVG/1.1/DTD/svg11.dtd">
<svg width="100%" height="100%" viewBox="0 0 155 217" version="1.1" xmlns="http://www.w3.org/2000/svg" xmlns:xlink="http://www.w3.org/1999/xlink" xml:space="preserve" xmlns:serif="http://www.serif.com/" style="fill-rule:evenodd;clip-rule:evenodd;stroke-linejoin:round;stroke-miterlimit:2;">
    <g transform="matrix(1,0,0,1,-22.6469,-16.5)">
        <g transform="matrix(1.5132,0,0,1.5132,-351.064,-657.681)">
            <g>
                <g transform="matrix(1,0,0,1,-37.4501,282.956)">
                    <path d="M382.66,256.863C382.66,251.465 380.879,245.109 377.336,237.82C373.984,230.926 368.387,221.801 360.539,210.477C354.383,200.902 347.273,190.047 339.211,177.898C338.723,177.23 337.879,176.277 336.672,175.07C335.789,174.191 335.359,173.613 335.359,173.309L335.359,163.984C335.359,163.047 335.574,162.578 336.023,162.578C336.258,162.578 336.547,162.723 336.906,163.012L353.844,177.41C354.887,178.293 355.41,178.961 355.41,179.41C355.41,179.715 355.156,179.859 354.637,179.859C353.879,179.859 352.621,179.52 350.875,178.832C349.633,178.348 349.02,178.238 349.02,178.492C349.02,178.617 349.219,178.941 349.598,179.465C350.93,181.316 356.383,189.617 365.957,204.32C373.934,216.598 379.441,226.625 382.5,234.398C385.273,241.402 386.656,248.297 386.656,255.062C386.656,267.27 382.934,278.57 375.516,288.941C371.574,294.449 367.164,298.316 362.25,300.566C360.289,301.484 356.941,302.547 352.188,303.789C347.438,305.031 343.945,305.75 341.695,305.949C340.777,306.039 340.324,305.949 340.324,305.699C340.324,305.465 340.777,305.066 341.641,304.473C345.977,302.008 353.035,297.777 362.824,291.785C368.785,287.914 373.555,282.855 377.137,276.646C380.809,270.294 382.66,263.703 382.66,256.863Z" style="fill:rgb(0,162,180);fill-rule:nonzero;"/>
                </g>
                <g transform="matrix(1,0,0,1,-37.4501,282.956)">
                    <path d="M358.055,251.789C356.398,246.766 355.285,242.086 354.691,237.711C354.473,236.02 354.313,234.992 354.203,234.598C353.969,233.68 353.539,232.781 352.891,231.914C353.34,230.402 354.059,228.316 355.031,225.617C355.355,224.824 355.66,224.445 355.914,224.445C356.148,224.445 356.543,224.824 357.137,225.617C359.711,229.199 361.871,232.402 363.617,235.227C364.34,236.398 364.699,237.227 364.699,237.711C364.699,238.07 364.535,238.25 364.211,238.25C363.563,238.25 362.395,237.711 360.703,236.648C360.539,236.648 360.414,236.758 360.305,236.992C360.898,239.098 361.836,242.012 363.133,245.723C366.066,254.055 367.543,260.121 367.543,263.937C367.543,267.734 366.965,271.066 365.832,273.891C363.941,278.716 360.664,281.129 356.023,281.129C351.07,281.129 347.164,278.969 344.305,274.685C342.574,272.109 341.047,268.258 339.715,263.109C339.137,268.294 337.48,272.738 334.781,276.484C331.469,281.02 327.223,283.289 322.055,283.289C316.352,283.289 312.371,280.57 310.086,275.117C308.824,272.055 308.195,268.474 308.195,264.332C308.195,258.863 308.844,253.77 310.141,249.051C310.48,247.773 310.66,246.926 310.66,246.512C310.66,246.281 310.609,246.172 310.48,246.172C310.246,246.172 309.727,246.801 308.914,248.062C307.637,250.059 306.305,254.09 304.902,260.176C303.086,268.023 301.895,272.758 301.34,274.38C300.602,276.63 299.539,278.445 298.172,279.812C297.07,280.949 296.102,281.523 295.289,281.523C291.652,281.523 288.828,279.203 286.848,274.574C285.227,270.742 284.418,266.098 284.418,260.66C284.418,256.863 284.992,252.723 286.164,248.258C286.434,247.25 286.688,246.512 286.957,246.008C287.297,245.398 287.551,245.324 287.676,245.777C287.801,246.297 287.746,247.215 287.477,248.547C286.828,251.949 286.508,255.047 286.508,257.891C286.508,268.888 288.809,274.396 293.438,274.396C295.414,274.396 297.07,272.902 298.367,269.949C299.18,268.094 300.168,264.551 301.34,259.348C302.688,253.586 303.82,249.375 304.758,246.695C305.84,243.633 307.172,240.914 308.773,238.539C310.48,235.875 311.992,234.543 313.254,234.543C314.297,234.543 314.82,235.641 314.82,237.855C314.82,239.691 314.297,243.383 313.254,248.961C312.211,254.559 311.707,258.305 311.707,260.23C311.707,264.387 312.57,267.645 314.316,269.984C316.043,272.344 318.473,273.513 321.551,273.513C327.148,273.513 331.363,271.75 334.152,268.238C336.367,265.469 337.48,262.047 337.48,257.98C337.48,254.074 337.141,250.293 336.492,246.656C336.043,244.082 335.41,241.637 334.637,239.332C333.988,237.316 333.664,236.363 333.664,236.488C333.664,234.254 334.387,231.195 335.863,227.309C336.188,226.461 336.438,226.047 336.637,226.047C336.871,226.047 337.23,226.605 337.754,227.703C339.84,232.043 341.477,238.684 342.684,247.629C343.816,256 345.457,261.977 347.598,265.574C349.723,269.177 352.961,270.977 357.336,270.977C360.973,270.977 363.367,269.646 364.5,267.016C364.5,266.098 363.742,264.152 362.215,261.148C360.254,257.352 358.883,254.219 358.055,251.789Z" style="fill:rgb(0,162,181);fill-rule:nonzero;"/>
                </g>
                <g transform="matrix(1,0,0,1,-37.4501,283.707)">
                    <path d="M335.195,214.852C335.195,216.129 334.906,217.445 334.352,218.812C333.613,220.574 332.656,221.457 331.469,221.457C329.617,221.457 328.301,220.18 327.527,217.641C326.645,220.898 325.043,222.539 322.688,222.539C321.82,222.539 321.047,222.086 320.398,221.207C319.645,220.16 319.285,218.793 319.285,217.102L319.285,213.105C319.285,212.781 319.051,212.547 318.617,212.422C318.168,212.297 317.953,211.953 317.953,211.395C317.953,210.512 318.313,209.648 319.066,208.805C319.754,208.066 320.273,207.687 320.633,207.687C321.102,207.687 321.336,208.57 321.336,210.316C321.336,211.234 321.246,211.988 321.102,212.621C320.957,213.23 320.887,213.773 320.887,214.223C320.887,215.176 321.066,216.094 321.461,216.957C321.93,217.984 322.488,218.488 323.172,218.488C324.055,218.488 324.883,218.074 325.656,217.281C326.41,216.488 326.809,215.555 326.809,214.473C326.809,213.863 326.629,212.801 326.27,211.305C325.906,209.793 325.727,208.875 325.727,208.516C325.727,208.191 325.891,207.668 326.215,206.969C326.539,206.285 326.773,205.922 326.934,205.922C327.238,205.922 327.617,206.914 328.086,208.91C328.555,210.891 328.805,212.352 328.805,213.305C328.805,216.039 329.852,217.406 331.973,217.406C332.875,217.406 333.449,216.941 333.684,216.039C331.848,212.836 330.949,210.406 330.949,208.715C330.949,207.723 331.184,206.859 331.668,206.121C332.012,205.602 332.227,205.312 332.352,205.293C332.496,205.293 332.586,205.617 332.656,206.266C332.746,207.184 332.891,207.922 333.09,208.516C333.125,208.57 333.559,209.703 334.402,211.883C334.926,213.176 335.195,214.168 335.195,214.852Z" style="fill:rgb(255,97,6);fill-rule:nonzero;"/>
                </g>
                <g transform="matrix(1,0,0,1,-36.594,282.693)">
                    <path d="M339.316,195.195C338.672,196.832 338.184,197.75 337.895,197.984C329.473,200.957 318.473,205.223 304.902,210.82C302.527,212.062 301.34,212.906 301.34,213.359C301.34,213.664 301.734,214.004 302.508,214.383C303.301,214.781 304.543,215.266 306.27,215.859C306.559,215.949 306.703,216.578 306.703,217.75C306.703,218.777 306.664,219.371 306.559,219.551C306.469,219.711 306.109,219.746 305.496,219.621C301.555,218.867 299.594,217.48 299.594,215.465C299.594,214.328 300.133,212.855 301.211,211.07C302.309,209.273 303.461,208.012 304.668,207.254C305.73,206.57 311.543,204.32 322.094,200.469C327.547,198.488 333.02,196.527 338.488,194.566C339.066,194.352 339.406,194.258 339.516,194.332C339.57,194.422 339.516,194.711 339.316,195.195Z" style="fill:rgb(255,97,6);fill-rule:nonzero;"/>
                </g>
                <g transform="matrix(0.904065,0,0,0.9,-6.5242,303.894)">
                    <path d="M317.43,198.437C317.07,199.211 316.766,199.695 316.547,199.859C316.352,200.02 316.242,199.91 316.207,199.551C316.207,199.191 316.277,198.707 316.441,198.094C316.621,197.48 316.855,196.328 317.18,194.672C317.285,193.828 317.34,193.02 317.34,192.227C317.34,186.105 314.711,180.758 309.473,176.168C309.148,175.883 309.098,175.523 309.328,175.09L310.789,172.516C310.914,172.281 311.129,172.281 311.418,172.516C316.566,176.441 319.141,182.039 319.141,189.309C319.141,192.945 318.563,195.988 317.43,198.437Z" style="fill:rgb(255,97,6);fill-rule:nonzero;"/>
                </g>
                <g transform="matrix(1,0,0,1,-37.4501,282.956)">
                    <path d="M301.824,226.516C301.895,226.66 301.934,226.859 301.934,227.09C301.934,227.828 301.699,228.711 301.211,229.684C300.742,230.672 300.293,231.16 299.844,231.16C300.203,231.16 298.906,230.945 295.992,230.492C294.93,232.348 293.832,233.77 292.68,234.742C291.691,235.586 290.215,236.488 288.254,237.422C287.73,237.676 287.477,237.945 287.477,238.199C287.477,238.434 287.656,238.594 288,238.684C289.223,239.043 291.023,239.078 293.418,238.828C294.445,238.703 296.891,238.199 300.762,237.281C301.246,237.172 301.5,237.137 301.5,237.172C301.5,237.242 300.762,237.801 299.285,238.828C298.637,239.297 297.469,239.836 295.813,240.41C293.527,241.238 291.492,241.652 289.656,241.652C287.461,241.652 286.363,240.934 286.363,239.492C286.363,238.055 286.992,236.777 288.254,235.695C289.313,234.977 290.359,234.238 291.422,233.48C292.914,232.457 294.047,231.375 294.82,230.258C292.48,229.844 291.313,228.965 291.313,227.578C291.313,226.551 291.617,225.398 292.246,224.141C291.836,222.684 291.926,221.656 292.535,221.043C293.004,220.574 293.563,220.34 294.191,220.34C294.805,220.34 295.508,220.539 296.297,220.973C299.07,222.484 300.906,224.336 301.824,226.516ZM300.313,227.902C299.719,226.625 298.691,225.687 297.215,225.039C297.215,226.391 297.09,227.398 296.855,228.102C297.09,228.172 298.188,228.332 300.168,228.605C300.277,228.621 300.367,228.605 300.402,228.566C300.512,228.477 300.473,228.242 300.313,227.902ZM295.703,227.902C295.848,227.199 295.813,226.461 295.633,225.723C295.414,224.879 295.074,224.465 294.57,224.465C294.266,224.465 293.852,224.734 293.309,225.254C292.77,225.797 292.5,226.211 292.5,226.496C292.5,227.145 293.563,227.613 295.703,227.902Z" style="fill:rgb(255,97,6);fill-rule:nonzero;"/>
                </g>
                <g transform="matrix(1,0,0,1,-37.4501,282.956)">
                    <path d="M349.777,208.48C349.777,209.687 349.273,211.035 348.301,212.566C347.293,214.148 345.977,215.52 344.395,216.633C343.766,217.082 343.387,217.316 343.262,217.316C343.242,217.316 343.242,217.301 343.242,217.281C343.242,217.172 343.512,216.852 344.035,216.254C346.66,213.395 347.977,211.484 347.977,210.531C347.977,209.613 347.543,209.164 346.699,209.164C346.246,209.164 345.816,209.289 345.438,209.543C345.168,209.723 344.988,209.828 344.914,209.848C344.879,209.812 344.809,209.777 344.734,209.758C344.773,209.648 344.809,209.414 344.879,209.02C345.313,207.039 346.285,206.066 347.832,206.066C349.129,206.066 349.777,206.879 349.777,208.48Z" style="fill:rgb(255,97,6);fill-rule:nonzero;"/>
                </g>
                <g transform="matrix(1,0,0,1,-37.4501,282.956)">
                    <path d="M327.996,189.023C328.43,189.023 328.844,188.824 329.238,188.445C329.688,188.016 329.922,187.473 329.922,186.809C329.922,186.086 329.508,185.727 328.699,185.727C328.34,185.727 328.031,185.855 327.762,186.07C327.762,185.637 328.051,184.988 328.645,184.09C329.184,183.262 329.707,182.613 330.246,182.129C330.371,181.984 330.406,181.859 330.355,181.75C330.336,181.66 330.246,181.641 330.102,181.73C329.418,182.145 328.68,182.937 327.906,184.09C327.008,185.387 326.574,186.5 326.574,187.437C326.574,188.48 327.043,189.023 327.996,189.023Z" style="fill:rgb(255,97,6);fill-rule:nonzero;"/>
                </g>
                <g transform="matrix(1,0,0,1,-37.4501,282.956)">
                    <path d="M307.836,193.863C307.906,193.719 307.961,193.613 308.035,193.559C308.105,193.504 308.141,193.523 308.141,193.574C308.18,193.648 308.18,193.773 308.141,193.937C307.512,197.391 306.484,199.121 305.047,199.121C303.535,199.121 302.777,197.84 302.777,195.305C302.777,192.191 303.68,188.914 305.477,185.492C305.93,184.648 306.199,184.215 306.289,184.199C306.305,184.199 306.324,184.199 306.324,184.234C306.324,184.395 306.199,184.863 305.93,185.672C304.758,189.238 304.184,191.738 304.184,193.16C304.184,195.105 304.703,196.094 305.746,196.094C306.359,196.094 307.063,195.34 307.836,193.863Z" style="fill:rgb(255,97,6);fill-rule:nonzero;"/>
                </g>
                <g transform="matrix(1,0,0,1,-38.102,281.949)">
                    <path d="M297.918,286.527C299.23,286.527 300.402,287.301 301.445,288.852C302.488,290.414 303.227,292.449 303.641,294.953C303.695,295.203 303.715,295.367 303.715,295.402C303.77,295.473 303.805,295.473 303.82,295.402C303.84,295.367 303.91,295.203 304.004,294.953C304.219,293.457 304.723,291.207 305.551,288.238C306.434,286.113 307.402,285.051 308.465,285.051C309.008,285.051 309.547,285.41 310.066,286.133C310.555,286.762 310.789,287.285 310.789,287.68C310.789,287.984 310.699,288.383 310.535,288.887C310.32,289.535 310.086,289.875 309.797,289.875C309.672,289.875 309.422,289.625 309.023,289.121C308.629,288.617 308.215,288.363 307.801,288.363C306.863,288.363 305.98,290.578 305.191,294.988C304.848,296.914 304.453,298.262 304.039,299.074C303.73,299.613 303.48,299.883 303.266,299.883C303.066,299.883 302.977,299.633 302.977,299.145C302.977,298.371 302.543,296.859 301.645,294.629C300.762,292.395 300.113,291.281 299.754,291.281C299.484,291.281 299.32,291.352 299.25,291.512C299.18,291.676 298.98,291.766 298.621,291.766C298.223,291.766 297.703,291.461 297.055,290.883C296.426,290.289 296.102,289.82 296.102,289.48C296.102,289.316 296.371,288.777 296.891,287.879C297.434,286.977 297.773,286.527 297.918,286.527Z" style="fill:rgb(255,97,6);fill-rule:nonzero;"/>
                </g>
                <g transform="matrix(1,0,0,1,-37.4501,282.956)">
                    <path d="M334.332,284.098C335.574,284.098 336.816,285.285 338.059,287.68C339.176,289.859 339.965,292.289 340.414,294.988C340.453,295.238 340.488,295.402 340.488,295.437C340.523,295.508 340.559,295.508 340.598,295.437C340.613,295.402 340.668,295.238 340.758,294.988C341.102,292.664 341.73,289.605 342.664,285.809C343.547,283.684 344.52,282.621 345.582,282.621C346.121,282.621 346.66,282.98 347.203,283.703C347.672,284.332 347.902,284.855 347.902,285.25C347.902,285.555 347.813,285.953 347.652,286.437C347.438,287.105 347.203,287.426 346.914,287.426C346.789,287.426 346.535,287.176 346.141,286.672C345.742,286.187 345.328,285.934 344.914,285.934C344.051,285.934 343.063,288.957 341.965,295.023C341.605,296.949 341.227,298.301 340.793,299.109C340.488,299.648 340.234,299.918 340.02,299.918C339.84,299.918 339.75,299.668 339.75,299.184C339.75,298.371 339.246,296.48 338.238,293.477C337.211,290.379 336.512,288.852 336.168,288.852C335.898,288.852 335.734,288.922 335.664,289.082C335.594,289.246 335.395,289.336 335.035,289.336C334.637,289.336 334.117,289.031 333.469,288.453C332.84,287.859 332.516,287.391 332.516,287.051C332.516,286.887 332.785,286.348 333.305,285.449C333.848,284.547 334.188,284.098 334.332,284.098Z" style="fill:rgb(255,97,6);fill-rule:nonzero;"/>
                </g>
                <g transform="matrix(1,0,0,1,-37.4501,282.956)">
                    <path d="M326.285,230.98C326.285,231.969 325.871,233.105 325.043,234.383C324.199,235.715 323.117,236.848 321.785,237.785C321.266,238.145 320.957,238.34 320.852,238.34C320.832,238.34 320.832,238.324 320.832,238.305C320.832,238.234 321.047,237.945 321.496,237.461C323.695,235.066 324.793,233.48 324.793,232.672C324.793,231.914 324.434,231.539 323.73,231.539C323.336,231.539 322.992,231.645 322.668,231.863C322.434,232.023 322.289,232.094 322.234,232.113C322.184,232.078 322.145,232.059 322.074,232.043C322.109,231.953 322.145,231.754 322.199,231.41C322.559,229.773 323.371,228.965 324.664,228.965C325.746,228.965 326.285,229.629 326.285,230.98Z" style="fill:rgb(255,97,6);fill-rule:nonzero;"/>
                </g>
                <g transform="matrix(1,0,0,1,-37.4501,282.956)">
                    <path d="M326.141,255.801C326.215,255.656 326.27,255.551 326.34,255.496C326.41,255.441 326.449,255.461 326.449,255.512C326.484,255.586 326.484,255.711 326.449,255.875C325.816,259.328 324.793,261.059 323.352,261.059C321.84,261.059 321.086,259.781 321.086,257.242C321.086,254.129 321.984,250.852 323.785,247.434C324.234,246.586 324.504,246.152 324.594,246.137C324.613,246.137 324.629,246.137 324.629,246.172C324.629,246.332 324.504,246.801 324.234,247.613C323.063,251.176 322.488,253.676 322.488,255.102C322.488,257.043 323.012,258.035 324.055,258.035C324.664,258.035 325.367,257.277 326.141,255.801Z" style="fill:rgb(255,97,6);fill-rule:nonzero;"/>
                </g>
                <g transform="matrix(1,0,0,1,-37.4501,282.956)">
                    <path d="M324.613,296.465C324.684,296.32 324.773,296.195 324.848,296.121C324.918,296.066 324.953,296.086 324.953,296.156C324.988,296.23 324.988,296.375 324.953,296.555C324.254,300.371 323.117,302.297 321.516,302.297C319.844,302.297 318.996,300.875 318.996,298.066C318.996,294.609 319.984,290.973 322.004,287.176C322.488,286.238 322.793,285.754 322.883,285.734C322.922,285.734 322.938,285.734 322.938,285.773C322.938,285.953 322.793,286.492 322.508,287.375C321.211,291.316 320.563,294.086 320.563,295.691C320.563,297.852 321.137,298.93 322.309,298.93C322.992,298.93 323.746,298.102 324.613,296.465Z" style="fill:rgb(255,97,6);fill-rule:nonzero;"/>
                </g>
                <g transform="matrix(1,0,0,1,-37.4501,282.559)">
                    <path d="M326.734,169.043C326.734,169.852 326.395,170.75 325.746,171.777C325.078,172.84 324.199,173.738 323.137,174.496C322.723,174.785 322.469,174.945 322.398,174.945C322.379,174.945 322.379,174.926 322.379,174.91C322.379,174.855 322.559,174.621 322.902,174.242C324.664,172.336 325.547,171.059 325.547,170.41C325.547,169.816 325.262,169.508 324.703,169.508C324.379,169.508 324.109,169.582 323.855,169.762C323.656,169.887 323.551,169.961 323.496,169.961C323.461,169.941 323.426,169.906 323.371,169.906C323.387,169.832 323.426,169.672 323.477,169.402C323.746,168.086 324.414,167.441 325.441,167.441C326.305,167.441 326.734,167.98 326.734,169.043Z" style="fill:rgb(255,97,6);fill-rule:nonzero;"/>
                </g>
                <g transform="matrix(1,0,0,1,-37.4501,282.956)">
                    <path d="M357.496,287.336C357.496,288.148 357.156,289.047 356.508,290.074C355.844,291.137 354.961,292.035 353.898,292.793C353.484,293.078 353.23,293.242 353.16,293.242C353.141,293.242 353.141,293.223 353.141,293.207C353.141,293.152 353.32,292.918 353.664,292.539C355.43,290.633 356.309,289.355 356.309,288.707C356.309,288.113 356.023,287.805 355.465,287.805C355.141,287.805 354.871,287.879 354.617,288.059C354.422,288.184 354.313,288.254 354.258,288.254C354.223,288.238 354.188,288.203 354.133,288.203C354.148,288.129 354.188,287.969 354.238,287.699C354.512,286.383 355.176,285.734 356.203,285.734C357.066,285.734 357.496,286.277 357.496,287.336Z" style="fill:rgb(255,97,6);fill-rule:nonzero;"/>
                </g>
            </g>
        </g>
    </g>
</svg>
