<?xml version="1.0" encoding="UTF-8" standalone="no"?>
<!DOCTYPE svg PUBLIC "-//W3C//DTD SVG 1.1//EN" "http://www.w3.org/Graphics/SVG/1.1/DTD/svg11.dtd">
<svg width="100%" height="100%" viewBox="0 0 1211 799" version="1.1" xmlns="http://www.w3.org/2000/svg" xmlns:xlink="http://www.w3.org/1999/xlink" xml:space="preserve" xmlns:serif="http://www.serif.com/" style="fill-rule:evenodd;clip-rule:evenodd;stroke-linejoin:round;stroke-miterlimit:2;">
    <g transform="matrix(1,0,0,1,-34.3397,-27.6569)">
        <g transform="matrix(4.16667,0,0,4.16667,-635.417,-1222.92)">
            <g transform="matrix(1.04509,0,0,1.04509,6.46106,102.072)">
                <g>
                    <g>
                        <g transform="matrix(0.99982,-0.0189581,0.0189581,0.99982,-5.31223,5.46781)">
                            <path d="M271.746,205.871C271.746,202.738 271.262,200.164 270.289,198.148C270.289,197.016 271.188,194.312 273.008,190.047C273.238,189.527 273.438,189.273 273.602,189.273C273.797,189.273 274.016,189.543 274.285,190.102C274.805,191.199 276.012,194.258 277.883,199.281C279.883,204.484 281.035,207.687 281.359,208.895C281.609,209.812 281.754,210.496 281.754,210.945C281.754,212.387 280.367,211.523 277.598,208.355C277.273,207.902 277.109,208.102 277.109,208.949C277.109,209.234 277.813,219.242 279.254,238.973C280.691,258.699 281.41,269.805 281.41,272.273C281.41,279.867 280.242,286.547 277.938,292.305C277.453,293.477 277.055,294.32 276.77,294.844C276.316,295.617 276.047,295.727 275.941,295.187C275.813,294.59 275.867,293.352 276.086,291.461C276.371,288.867 276.535,285.844 276.535,282.387C276.535,279.255 275.723,266.402 274.141,243.812C272.539,221.223 271.746,208.57 271.746,205.871Z" style="fill:rgb(0,162,181);fill-rule:nonzero;"/>
                        </g>
                        <g transform="matrix(0.99982,-0.0189581,0.0189581,0.99982,-5.31223,5.46781)">
                            <path d="M312.625,259.691C310.969,254.668 309.852,249.988 309.258,245.613C309.043,243.922 308.879,242.895 308.773,242.5C308.539,241.582 308.105,240.684 307.457,239.816C307.906,238.305 308.629,236.219 309.602,233.52C309.926,232.727 310.23,232.348 310.48,232.348C310.715,232.348 311.113,232.727 311.707,233.52C314.281,237.102 316.441,240.305 318.188,243.129C318.906,244.301 319.266,245.129 319.266,245.613C319.266,245.973 319.105,246.152 318.781,246.152C318.133,246.152 316.961,245.613 315.27,244.551C315.109,244.551 314.98,244.66 314.875,244.895C315.469,247 316.402,249.914 317.699,253.625C320.633,261.957 322.109,268.023 322.109,271.841C322.109,275.638 321.535,278.969 320.398,281.793C318.512,286.617 315.234,289.031 310.59,289.031C305.641,289.031 301.734,286.871 298.871,282.586C297.145,280.012 295.613,276.16 294.281,271.013C293.707,276.195 292.051,280.641 289.352,284.387C286.039,288.922 281.789,291.191 276.625,291.191C270.918,291.191 266.941,288.473 264.652,283.02C263.395,279.957 262.766,276.375 262.766,272.234C262.766,266.762 263.41,261.668 264.707,256.953C265.051,255.676 265.23,254.828 265.23,254.414C265.23,254.184 265.176,254.074 265.051,254.074C264.816,254.074 264.293,254.703 263.484,255.965C262.207,257.961 260.875,261.992 259.469,268.078C257.652,275.927 256.465,280.66 255.906,282.281C255.168,284.531 254.105,286.348 252.738,287.715C251.641,288.852 250.668,289.426 249.859,289.426C246.223,289.426 243.395,287.105 241.414,282.477C239.797,278.646 238.984,274 238.984,268.562C238.984,264.766 239.563,260.625 240.73,256.16C241.004,255.152 241.254,254.414 241.523,253.91C241.867,253.301 242.117,253.227 242.242,253.676C242.371,254.199 242.316,255.117 242.047,256.449C241.398,259.852 241.074,262.949 241.074,265.793C241.074,276.789 243.379,282.297 248.004,282.297C249.984,282.297 251.641,280.805 252.938,277.852C253.746,275.996 254.734,272.453 255.906,267.25C257.258,261.488 258.39,257.277 259.324,254.594C260.406,251.535 261.738,248.816 263.34,246.441C265.051,243.777 266.563,242.445 267.82,242.445C268.867,242.445 269.387,243.543 269.387,245.758C269.387,247.594 268.867,251.285 267.82,256.863C266.777,262.461 266.273,266.207 266.273,268.133C266.273,272.289 267.137,275.547 268.883,277.888C270.613,280.246 273.043,281.414 276.121,281.414C281.719,281.414 285.93,279.652 288.719,276.141C290.934,273.371 292.051,269.949 292.051,265.883C292.051,261.977 291.707,258.195 291.059,254.559C290.609,251.984 289.98,249.539 289.207,247.234C288.559,245.219 288.234,244.262 288.234,244.391C288.234,242.156 288.953,239.098 290.43,235.211C290.754,234.363 291.008,233.949 291.203,233.949C291.438,233.949 291.797,234.508 292.32,235.605C294.406,239.945 296.047,246.586 297.254,255.531C298.387,263.902 300.023,269.88 302.164,273.477C304.289,277.078 307.531,278.88 311.902,278.88C315.539,278.88 317.934,277.547 319.066,274.919C319.066,274 318.313,272.055 316.781,269.052C314.82,265.25 313.453,262.121 312.625,259.691Z" style="fill:rgb(0,162,181);fill-rule:nonzero;"/>
                        </g>
                        <g transform="matrix(0.99982,-0.0189581,0.0189581,0.99982,-5.31223,5.46781)">
                            <path d="M398.285,298.605C398.285,297.832 396.773,296.789 393.75,295.492C390.727,294.176 388.492,293.656 387.07,293.926C386.551,294.051 386.352,294.285 386.477,294.609C387,295.977 388.117,298.316 389.809,301.648C394.234,300.281 397.063,299.273 398.285,298.605ZM343.816,332.789C343.172,327.191 340.828,318.801 336.797,307.605C332.891,296.859 330.93,291.656 330.93,291.98C330.93,290.02 331.453,287.32 332.496,283.883C332.695,283.289 333.09,283.289 333.664,283.883C335.035,285.375 336.887,288.598 339.227,293.547C342.16,299.723 344.305,305.879 345.672,311.996C346.984,319.09 348.316,326.199 349.688,333.293C350.91,339.285 353.09,344.812 356.219,349.887C358.883,354.387 362.898,357.664 368.227,359.75C368.227,352.391 370.152,347.547 373.984,345.207C377.242,343.246 382.895,340.707 390.977,337.594L354.457,337.594C353.484,337.594 352.855,337.469 352.566,337.25C352.262,337.02 352.188,336.441 352.313,335.543C352.711,331.367 353.969,327.945 356.129,325.281C362.305,317.523 372.367,310.199 386.281,303.305C385.703,302.258 384.859,300.605 383.762,298.316C383.238,297.273 382.984,295.941 382.984,294.305C382.984,291.766 383.633,289.66 384.93,287.969C386.426,285.809 388.676,284.746 391.66,284.746C394.004,284.746 397.352,286.238 401.723,289.227C406.332,292.359 408.652,294.969 408.652,297.039C407.988,299.848 407.18,302.457 406.207,304.871C402.496,305.969 397.996,307.336 392.723,308.957C392.922,312.035 392.633,313.562 391.859,313.562C391.266,313.562 390.652,312.41 390.008,310.145C385.957,311.711 380.863,314.41 374.672,318.242C368.746,321.953 364.445,325.211 361.781,328.02C365.238,328.27 370.277,328.414 376.922,328.414C384.93,328.414 394.973,328.215 407.09,327.82C419.184,327.422 424.691,327.242 423.574,327.242C424.223,327.242 424.621,327.332 424.746,327.531C424.816,327.656 424.711,328.09 424.457,328.793L422.117,334.75C421.848,335.469 421.324,335.957 420.551,336.227C387.629,346.703 371.16,353.145 371.16,355.559C371.16,357.574 376.199,360.852 386.281,365.422C386.801,365.672 387.035,366.16 386.965,366.879L386.281,373.324C386.152,374.043 385.703,374.402 384.91,374.402C381.797,374.402 377.855,373.613 373.105,372.047C366.461,369.832 361.207,366.809 357.301,362.973C353.645,359.32 350.91,354.891 349.094,349.691C348.047,346.629 346.844,341.426 345.473,334.066C345.473,335.363 345.422,336.566 345.293,337.684C344.953,340.223 344.465,341.984 343.816,342.957C339.012,350.121 332.766,356.566 325.078,362.289C316.945,368.336 310.016,371.379 304.289,371.379C300.906,371.379 298.332,369.941 296.566,367.078C295.074,364.738 294.336,361.84 294.336,358.383C294.336,351.543 295.758,344.578 298.621,337.484C299.27,335.992 299.734,335.234 299.988,335.234C300.113,335.309 300.188,335.469 300.188,335.723C300.188,336.191 300.059,336.926 299.789,337.973C297.773,345.008 296.785,350.211 296.785,353.594C296.785,356.258 297.629,358.312 299.305,359.75C300.742,360.977 302.598,361.605 304.883,361.605C311.059,361.605 319.031,357.699 328.789,349.887C337.895,342.598 342.918,336.891 343.816,332.789Z" style="fill:rgb(255,97,5);fill-rule:nonzero;"/>
                        </g>
                        <g transform="matrix(0.99982,-0.0189581,0.0189581,0.99982,-5.31223,5.46781)">
                            <path d="M263.484,364.828C260.262,364.828 257.453,363.371 255.043,360.473C252.504,357.449 251.242,353.758 251.242,349.383C251.242,343.371 253.711,335.523 258.66,325.84C259.183,324.832 259.578,324.328 259.867,324.328C260.012,324.363 260.062,324.488 260.062,324.723C260.062,325.695 259.004,329.078 256.844,334.859C254.699,340.637 253.637,345.207 253.637,348.555C253.637,351.129 254.23,353.184 255.438,354.711C256.699,356.367 258.48,357.215 260.746,357.215C264.293,357.215 268.414,355.02 273.098,350.66C273.617,350.141 277.813,345.621 285.641,337.125C297.109,324.687 307.352,318.477 316.402,318.477C318.996,318.477 321.227,319.25 323.082,320.836C324.938,322.418 325.871,324.273 325.871,326.379C325.871,328.988 325.422,331.277 324.539,333.273C324.215,333.977 324,334.336 323.855,334.336C323.695,334.336 323.426,333.977 323.027,333.273C321.176,329.926 318.328,328.25 314.496,328.25C307.566,328.25 299.629,332.77 290.664,341.824C285.695,347.258 280.711,352.695 275.742,358.133C271.402,362.594 267.316,364.828 263.484,364.828Z" style="fill:rgb(255,176,0);fill-rule:nonzero;"/>
                        </g>
                        <g transform="matrix(0.99982,-0.0189581,0.0189581,0.99982,-5.31223,5.46781)">
                            <path d="M269.117,302.621C269.91,301.973 270.523,301.648 270.973,301.648C271.313,301.648 271.477,301.937 271.477,302.531C271.477,303.105 271.313,304.043 270.973,305.301C270.648,306.578 270.484,307.57 270.484,308.273C270.484,311.855 273.023,313.652 278.102,313.652C282.078,313.652 285.371,311.961 287.965,308.578C289.602,305.969 291.258,303.395 292.949,300.855C293.473,300.207 293.957,299.883 294.406,299.883C295.055,299.883 295.219,300.566 294.895,301.937C294.246,304.742 293.922,305.984 293.922,305.66C293.922,306.832 294.516,307.91 295.723,308.918C296.93,309.945 298.441,310.449 300.277,310.449C302.473,310.449 303.91,309.855 304.559,308.687C304.559,308.613 303.84,307.355 302.418,304.871C302.672,303.5 303.266,301.289 304.164,298.227C304.434,297.254 304.723,296.77 305.047,296.77C305.316,296.77 305.676,297.059 306.125,297.633C307.492,299.594 308.18,301.809 308.18,304.293C308.18,308.324 307.297,311.781 305.531,314.645C303.516,318.102 300.652,319.828 296.945,319.828C294.336,319.828 291.977,317.867 289.816,313.961C286.309,320.258 281.719,323.426 276.047,323.426C269.477,323.426 266.203,319.719 266.203,312.285C263.594,315.344 259.433,318.117 253.711,320.602L253.711,311.801C257.992,309.785 260.566,308.543 261.414,308.09C264.023,306.668 266.578,304.832 269.117,302.621Z" style="fill:rgb(255,176,0);fill-rule:nonzero;"/>
                        </g>
                        <g transform="matrix(0.99982,-0.0189581,0.0189581,0.99982,-5.31223,5.46781)">
                            <path d="M253.676,320.602L253.188,320.801C253.188,322.691 252.758,325.031 251.91,327.82C250.738,331.547 249.121,334.57 247.031,336.91C242.93,341.59 235.676,346.898 225.254,352.82C216.09,358.043 210.691,360.652 209.051,360.652C208.656,360.652 203.941,361.75 194.902,363.965C185.273,366.305 179.242,367.672 176.832,368.066C174.238,368.465 172.637,368.66 172.063,368.66C171.793,368.66 171.629,368.625 171.574,368.555C171.574,368.301 173.359,367.383 176.941,365.816C178.184,365.242 185.598,362.039 199.188,356.242C208.566,352.211 216.414,348.539 222.715,345.207C240.551,335.578 249.461,328.809 249.461,324.887C249.461,323.789 249.246,322.672 248.777,321.574C246.836,322.223 244.063,322.547 240.48,322.547C232.813,322.547 228.977,319.937 228.977,314.734C228.977,310.684 230.273,307.137 232.867,304.078C235.277,301.215 237.781,299.793 240.391,299.793C242.477,299.793 244.691,301.055 247.031,303.59C249.102,305.805 250.957,308.648 252.594,312.105C252.719,312.105 253.078,311.996 253.676,311.801L253.676,320.602ZM244.492,313.059C242.207,310.02 240.137,308.488 238.246,308.488C235.387,308.488 233.965,309.262 233.965,310.828C233.965,312.645 235.945,313.562 239.902,313.562C241.324,313.562 242.855,313.402 244.492,313.059Z" style="fill:rgb(255,176,0);fill-rule:nonzero;"/>
                        </g>
                        <g transform="matrix(0.99982,-0.0189581,0.0189581,0.99982,-5.31223,5.46781)">
                            <path d="M214.434,331.473C211.23,335.254 205.992,339.754 198.719,344.957C187.453,352.965 177.66,356.98 169.324,356.98C160.688,356.98 154.441,353.613 150.59,346.918C147.996,342.418 146.699,337.109 146.699,330.988C146.699,323.57 147.926,317.453 150.406,312.629C151.309,310.738 151.957,309.801 152.352,309.785C152.477,309.801 152.551,309.965 152.551,310.289C152.551,310.863 152.281,311.836 151.777,313.203C149.887,318.297 148.949,322.977 148.949,327.281C148.949,331.383 150.086,335.219 152.352,338.801C156.008,344.469 161.82,347.313 169.828,347.313C177.121,347.313 185.992,344.109 196.469,337.738C204.012,333.184 210.457,328.395 215.785,323.375C216.574,322.652 216.973,321.195 216.973,318.98C216.973,316.316 216.484,307.605 215.516,292.863C214.543,278.105 214.055,269.699 214.055,267.609C214.055,264.477 213.551,261.922 212.578,259.887C212.578,258.719 213.496,256.02 215.316,251.789C215.516,251.266 215.711,251.012 215.891,251.012C216.09,251.012 216.324,251.266 216.574,251.789C217.098,252.957 218.305,256.02 220.176,260.969C222.137,266.168 223.309,269.391 223.688,270.633C223.883,271.535 223.992,272.219 223.992,272.687C223.992,274.109 222.625,273.227 219.906,270.039C219.582,269.591 219.422,269.789 219.422,270.633C219.422,270.832 219.742,275.492 220.391,284.637C221.039,293.801 221.363,299.453 221.363,301.594C221.363,310.648 220.68,317.504 219.313,322.203C218.395,325.66 216.773,328.738 214.434,331.473Z" style="fill:rgb(255,176,0);fill-rule:nonzero;"/>
                        </g>
                        <g transform="matrix(0.99982,-0.0189581,0.0189581,0.99982,-5.31223,5.46781)">
                            <path d="M381.762,275.187C381.996,274.435 382.031,273.677 381.906,272.919C381.762,272.091 381.383,271.66 380.773,271.66C380.484,271.66 380.105,271.805 379.602,272.074C379.117,272.344 378.863,272.613 378.863,272.883C378.863,273.477 379.836,274.25 381.762,275.187ZM380.27,278.535C377.855,277.294 376.633,275.98 376.633,274.594C376.633,272.937 377.406,271.406 378.938,270.023C380.484,268.652 381.762,268.133 382.77,268.508C383.633,268.816 384.047,269.734 384.047,271.281C384.047,272.648 383.777,274.199 383.203,275.927C384.426,276.63 385.184,277.224 385.508,277.727C385.508,278.375 384.949,279.474 383.867,281.039C383.543,280.551 382.805,279.941 381.637,279.238C380.285,281.109 378.559,282.82 376.488,284.367C374.113,286.094 371.934,287.426 369.953,288.309C369.539,288.508 367.254,289.391 363.098,290.918C362.449,291.152 362.016,291.281 361.801,291.281C361.691,291.281 361.656,291.242 361.656,291.191C361.656,291.047 362.016,290.723 362.734,290.254C365.813,288.437 368.891,286.602 371.988,284.746C375.695,282.512 378.449,280.445 380.27,278.535Z" style="fill:rgb(248,169,53);fill-rule:nonzero;"/>
                        </g>
                        <g transform="matrix(0.99982,-0.0189581,0.0189581,0.99982,-5.31223,5.46781)">
                            <path d="M354.512,305.805C359.586,304.004 365.094,302.062 371.035,299.937C371.449,299.793 371.699,299.738 371.773,299.793C371.879,299.867 371.844,300.082 371.699,300.441C371.23,301.594 370.855,302.297 370.566,302.531C365.563,304.277 359.766,306.562 353.195,309.406C353.465,308.309 353.914,307.102 354.512,305.805Z" style="fill:rgb(248,169,53);fill-rule:nonzero;"/>
                        </g>
                        <g transform="matrix(0.99982,-0.0189581,0.0189581,0.99982,-5.31223,5.46781)">
                            <path d="M357.91,292.523C357.91,293.531 357.68,294.59 357.246,295.672C356.633,297.094 355.879,297.797 354.941,297.797C353.449,297.797 352.402,296.77 351.773,294.734C351.07,297.344 349.777,298.66 347.902,298.66C347.203,298.66 346.59,298.301 346.066,297.598C345.473,296.77 345.188,295.672 345.188,294.32L345.188,291.117C345.188,290.848 345.008,290.668 344.664,290.559C344.305,290.469 344.141,290.184 344.141,289.75C344.141,289.047 344.43,288.344 345.023,287.68C345.563,287.066 345.996,286.781 346.266,286.781C346.645,286.781 346.824,287.48 346.824,288.887C346.824,289.625 346.754,290.234 346.645,290.723C346.535,291.227 346.48,291.641 346.48,292.02C346.48,292.773 346.625,293.492 346.934,294.195C347.309,295.004 347.762,295.418 348.301,295.418C349.004,295.418 349.668,295.094 350.281,294.449C350.891,293.816 351.199,293.062 351.199,292.215C351.199,291.711 351.055,290.867 350.746,289.66C350.461,288.473 350.316,287.734 350.316,287.445C350.316,287.176 350.461,286.762 350.711,286.203C350.98,285.645 351.18,285.375 351.305,285.375C351.539,285.375 351.848,286.168 352.223,287.75C352.602,289.336 352.801,290.504 352.801,291.262C352.801,293.457 353.629,294.555 355.32,294.555C356.059,294.555 356.508,294.176 356.688,293.457C355.23,290.902 354.492,288.957 354.492,287.59C354.492,286.816 354.691,286.133 355.086,285.52C355.355,285.105 355.535,284.891 355.625,284.871C355.734,284.871 355.824,285.125 355.879,285.645C355.949,286.367 356.059,286.977 356.219,287.445C356.258,287.5 356.598,288.398 357.281,290.129C357.695,291.172 357.91,291.965 357.91,292.523Z" style="fill:rgb(0,162,180);fill-rule:nonzero;"/>
                        </g>
                        <g transform="matrix(0.99982,-0.0189581,0.0189581,0.99982,-5.31223,5.46781)">
                            <path d="M340.793,280.641C350.605,276.988 360.863,273.191 371.555,269.23C371.988,269.086 372.223,269.031 372.313,269.086C372.402,269.156 372.383,269.375 372.223,269.734C371.754,270.888 371.375,271.57 371.09,271.805C362.125,275.117 351.574,279.219 339.48,284.117C339.73,283.035 340.184,281.883 340.793,280.641Z" style="fill:rgb(234,100,59);fill-rule:nonzero;"/>
                        </g>
                        <g transform="matrix(0.99982,-0.0189581,0.0189581,0.99982,-5.31223,5.46781)">
                            <path d="M312.75,310.305C317.824,308.504 323.336,306.562 329.273,304.437C329.688,304.293 329.941,304.238 330.012,304.293C330.121,304.367 330.086,304.582 329.941,304.941C329.473,306.094 329.094,306.797 328.805,307.031C323.801,308.777 318.008,311.062 311.438,313.906C311.707,312.809 312.156,311.602 312.75,310.305Z" style="fill:rgb(0,162,180);fill-rule:nonzero;"/>
                        </g>
                        <g transform="matrix(0.99982,-0.0189581,0.0189581,0.99982,-5.31223,5.46781)">
                            <path d="M293.707,291.605C293.922,290.937 293.957,290.254 293.852,289.57C293.707,288.812 293.363,288.453 292.824,288.453C292.57,288.453 292.211,288.578 291.781,288.812C291.328,289.066 291.098,289.301 291.098,289.535C291.098,290.074 291.977,290.777 293.707,291.605ZM292.375,294.645C290.195,293.512 289.098,292.324 289.098,291.082C289.098,289.586 289.801,288.219 291.168,286.977C292.555,285.734 293.707,285.27 294.625,285.609C295.398,285.879 295.777,286.707 295.777,288.094C295.777,289.336 295.523,290.738 295.004,292.289C296.102,292.918 296.801,293.457 297.07,293.891C297.07,294.484 296.586,295.473 295.598,296.879C295.324,296.445 294.66,295.906 293.598,295.258C292.375,296.949 290.824,298.496 288.953,299.883C286.828,301.449 284.867,302.637 283.086,303.43C282.727,303.609 280.656,304.402 276.91,305.789C276.316,306.004 275.941,306.113 275.742,306.113C275.652,306.113 275.617,306.074 275.617,306.039C275.617,305.895 275.941,305.609 276.59,305.195C279.359,303.555 282.133,301.898 284.922,300.227C288.254,298.211 290.734,296.355 292.375,294.645Z" style="fill:rgb(234,100,59);fill-rule:nonzero;"/>
                        </g>
                        <g transform="matrix(0.99982,-0.0189581,0.0189581,0.99982,-5.31223,5.46781)">
                            <path d="M226.133,233.195C226.367,232.437 226.402,231.684 226.277,230.926C226.133,230.098 225.758,229.664 225.145,229.664C224.855,229.664 224.477,229.809 223.973,230.078C223.488,230.352 223.234,230.621 223.234,230.891C223.234,231.484 224.207,232.258 226.133,233.195ZM224.641,236.543C222.227,235.301 221.004,233.984 221.004,232.602C221.004,230.945 221.777,229.414 223.309,228.027C224.855,226.66 226.133,226.137 227.141,226.516C228.008,226.82 228.422,227.738 228.422,229.289C228.422,230.656 228.148,232.203 227.574,233.934C228.797,234.633 229.555,235.227 229.879,235.73C229.879,236.379 229.32,237.477 228.238,239.043C227.914,238.559 227.18,237.945 226.008,237.242C224.656,239.117 222.93,240.824 220.859,242.375C218.484,244.102 216.305,245.434 214.324,246.316C213.91,246.512 211.625,247.395 207.469,248.926C206.82,249.16 206.387,249.285 206.172,249.285C206.063,249.285 206.027,249.25 206.027,249.195C206.027,249.051 206.387,248.727 207.109,248.258C210.188,246.441 213.266,244.605 216.359,242.75C220.066,240.52 222.82,238.449 224.641,236.543Z" style="fill:rgb(0,162,180);fill-rule:nonzero;"/>
                        </g>
                        <g transform="matrix(0.99982,-0.0189581,0.0189581,0.99982,-5.31223,5.46781)">
                            <path d="M303.605,224.879C303.605,225.887 303.371,226.949 302.941,228.027C302.328,229.449 301.57,230.152 300.637,230.152C299.141,230.152 298.098,229.125 297.469,227.09C296.766,229.703 295.469,231.016 293.598,231.016C292.895,231.016 292.285,230.656 291.762,229.953C291.168,229.125 290.879,228.027 290.879,226.676L290.879,223.473C290.879,223.203 290.699,223.023 290.359,222.914C289.996,222.824 289.836,222.539 289.836,222.105C289.836,221.402 290.125,220.703 290.719,220.035C291.258,219.422 291.691,219.137 291.961,219.137C292.34,219.137 292.52,219.836 292.52,221.242C292.52,221.98 292.445,222.59 292.34,223.078C292.23,223.582 292.176,223.996 292.176,224.375C292.176,225.129 292.32,225.852 292.625,226.551C293.004,227.363 293.453,227.777 293.992,227.777C294.695,227.777 295.363,227.453 295.973,226.805C296.586,226.172 296.891,225.418 296.891,224.57C296.891,224.066 296.746,223.223 296.441,222.016C296.152,220.828 296.012,220.09 296.012,219.801C296.012,219.531 296.152,219.117 296.406,218.559C296.676,218 296.875,217.73 297,217.73C297.234,217.73 297.539,218.523 297.918,220.109C298.297,221.691 298.492,222.863 298.492,223.617C298.492,225.812 299.32,226.91 301.016,226.91C301.754,226.91 302.203,226.535 302.383,225.812C300.926,223.258 300.188,221.312 300.188,219.945C300.188,219.172 300.383,218.488 300.781,217.875C301.051,217.461 301.23,217.246 301.32,217.227C301.43,217.227 301.52,217.48 301.57,218C301.645,218.723 301.754,219.332 301.914,219.801C301.949,219.855 302.293,220.754 302.977,222.484C303.391,223.527 303.605,224.32 303.605,224.879Z" style="fill:rgb(248,169,53);fill-rule:nonzero;"/>
                        </g>
                        <g transform="matrix(0.99982,-0.0189581,0.0189581,0.99982,-5.31223,5.46781)">
                            <path d="M284.762,214.457C289.836,212.656 295.344,210.711 301.285,208.586C301.699,208.445 301.949,208.391 302.023,208.445C302.129,208.516 302.094,208.73 301.949,209.09C301.48,210.242 301.105,210.945 300.816,211.18C295.813,212.926 290.016,215.211 283.445,218.055C283.715,216.957 284.164,215.75 284.762,214.457Z" style="fill:rgb(234,100,59);fill-rule:nonzero;"/>
                        </g>
                        <g transform="matrix(0.99982,-0.0189581,0.0189581,0.99982,-5.31223,5.46781)">
                            <path d="M290.969,210.047C290.844,210.73 290.719,211.16 290.574,211.324C290.449,211.484 290.34,211.434 290.25,211.16C290.18,210.891 290.141,210.496 290.16,209.973C290.195,209.453 290.141,208.535 290.051,207.184C289.223,202.559 286.199,198.902 280.961,196.223C280.656,196.059 280.547,195.789 280.637,195.41L281.285,193.125C281.34,192.926 281.504,192.875 281.773,193C286.469,194.961 289.457,198.508 290.734,203.637C291.293,205.887 291.383,208.031 290.969,210.047Z" style="fill:rgb(0,162,180);fill-rule:nonzero;"/>
                        </g>
                        <g transform="matrix(0.99982,-0.0189581,0.0189581,0.99982,-5.31223,5.46781)">
                            <path d="M263.125,233.156C262.457,231.684 261.305,230.602 259.703,229.918C259.703,231.34 259.543,232.508 259.234,233.391C259.433,233.445 260.695,233.625 262.98,233.934C263.105,233.969 263.195,233.949 263.25,233.895C263.359,233.789 263.32,233.555 263.125,233.156ZM258.012,233.156C258.226,232.402 258.226,231.59 258.012,230.746C257.777,229.809 257.363,229.34 256.769,229.34C256.43,229.34 255.961,229.629 255.367,230.223C254.773,230.836 254.465,231.285 254.465,231.59C254.465,232.328 255.652,232.852 258.012,233.156ZM254.195,228.98C253.727,227.363 253.836,226.227 254.504,225.543C255.023,225.023 255.637,224.77 256.34,224.77C257.023,224.77 257.797,225.004 258.68,225.473C261.758,227.164 263.809,229.215 264.816,231.629C264.887,231.789 264.941,232.004 264.941,232.258C264.941,233.086 264.672,234.059 264.148,235.156C263.629,236.234 263.125,236.793 262.637,236.793C262.441,236.793 261.019,236.648 258.336,236.363C256.984,238.234 255.293,239.906 253.297,241.402C250.922,243.148 248.762,244.461 246.781,245.344C246.367,245.543 244.063,246.422 239.902,247.953C239.258,248.187 238.805,248.312 238.57,248.312C238.465,248.312 238.43,248.277 238.43,248.223C238.43,248.098 238.805,247.793 239.543,247.289C242.605,245.488 245.645,243.707 248.688,241.906C252.18,239.855 254.863,237.91 256.769,236.09C254.359,235.535 253.152,234.453 253.152,232.797C253.152,231.449 253.492,230.168 254.195,228.98Z" style="fill:rgb(234,100,59);fill-rule:nonzero;"/>
                        </g>
                        <g transform="matrix(0.99982,-0.0189581,0.0189581,0.99982,-5.31223,5.46781)">
                            <path d="M265.211,215.445C265.34,215.266 265.465,215.141 265.57,215.066C265.699,215.012 265.734,215.051 265.715,215.141C265.734,215.246 265.699,215.41 265.625,215.625C263.844,220.145 261.988,222.215 260.047,221.836C257.957,221.441 257.258,219.512 257.922,216.059C258.75,211.809 260.855,207.598 264.223,203.402C265.051,202.379 265.535,201.855 265.66,201.836C265.699,201.855 265.715,201.875 265.699,201.91C265.66,202.125 265.355,202.754 264.797,203.766C262.242,208.316 260.785,211.559 260.406,213.5C259.883,216.164 260.351,217.625 261.793,217.91C262.621,218.074 263.754,217.246 265.211,215.445Z" style="fill:rgb(0,162,180);fill-rule:nonzero;"/>
                        </g>
                        <g transform="matrix(0.99982,-0.0189581,0.0189581,0.99982,-5.31223,5.46781)">
                            <path d="M245.594,226.586C245.594,227.918 245.035,229.434 243.953,231.125C242.82,232.887 241.379,234.398 239.617,235.641C238.914,236.145 238.5,236.398 238.375,236.398C238.34,236.398 238.34,236.379 238.34,236.344C238.34,236.254 238.625,235.875 239.219,235.227C242.137,232.043 243.594,229.918 243.594,228.855C243.594,227.848 243.125,227.344 242.191,227.344C241.668,227.344 241.199,227.488 240.785,227.758C240.48,227.973 240.281,228.082 240.211,228.117C240.156,228.062 240.086,228.027 240.012,227.992C240.031,227.902 240.086,227.613 240.156,227.184C240.625,224.984 241.723,223.906 243.434,223.906C244.871,223.906 245.594,224.789 245.594,226.586Z" style="fill:rgb(248,169,53);fill-rule:nonzero;"/>
                        </g>
                        <g transform="matrix(0.99982,-0.0189581,0.0189581,0.99982,-5.31223,5.46781)">
                            <path d="M233.496,289.715C233.566,289.535 233.656,289.426 233.73,289.371C233.785,289.316 233.82,289.336 233.84,289.406C233.875,289.48 233.875,289.625 233.84,289.805C233.656,291.281 233.242,292.613 232.578,293.781C231.91,294.953 231.191,295.547 230.398,295.547C229.555,295.562 228.906,295.113 228.457,294.215C228.023,293.297 227.824,292.07 227.879,290.543C227.953,288.633 228.672,285.863 230.059,282.191C231.266,278.949 232.289,276.664 233.172,275.312C233.566,274.703 233.84,274.396 233.965,274.38C233.98,274.469 233.875,274.828 233.605,275.422C231.66,279.777 230.398,283.289 229.824,285.969C229.59,287.031 229.48,288.004 229.48,288.867C229.48,290.055 229.699,290.957 230.129,291.551C230.473,292.055 230.832,292.25 231.191,292.18C231.949,292.02 232.703,291.207 233.496,289.715Z" style="fill:rgb(234,100,59);fill-rule:nonzero;"/>
                        </g>
                        <g transform="matrix(0.99982,-0.0189581,0.0189581,0.99982,-5.31223,5.46781)">
                            <path d="M233.137,252.309C233.137,253.641 232.578,255.152 231.496,256.844C230.363,258.609 228.926,260.121 227.16,261.363C226.457,261.867 226.043,262.121 225.918,262.121C225.883,262.121 225.883,262.102 225.883,262.066C225.883,261.977 226.172,261.598 226.766,260.949C229.68,257.762 231.137,255.641 231.137,254.578C231.137,253.57 230.672,253.066 229.734,253.066C229.211,253.066 228.742,253.211 228.328,253.48C228.023,253.695 227.824,253.805 227.754,253.84C227.699,253.785 227.629,253.75 227.555,253.715C227.574,253.625 227.629,253.336 227.699,252.902C228.168,250.707 229.266,249.629 230.977,249.629C232.414,249.629 233.137,250.508 233.137,252.309Z" style="fill:rgb(248,169,53);fill-rule:nonzero;"/>
                        </g>
                        <g transform="matrix(0.99982,-0.0189581,0.0189581,0.99982,-5.31223,5.46781)">
                            <path d="M327.438,257.422C328.824,257.422 330.211,258.734 331.578,261.398C332.84,263.812 333.703,266.531 334.207,269.521C334.242,269.805 334.277,269.984 334.277,270.023C334.332,270.113 334.367,270.113 334.387,270.023C334.422,269.984 334.477,269.805 334.586,269.521C334.945,266.945 335.664,263.543 336.691,259.328C337.68,256.953 338.762,255.785 339.93,255.785C340.543,255.785 341.137,256.18 341.73,256.988C342.254,257.691 342.504,258.27 342.504,258.699C342.504,259.043 342.414,259.492 342.234,260.031C342,260.75 341.73,261.129 341.426,261.129C341.297,261.129 341.012,260.84 340.559,260.285C340.109,259.727 339.66,259.457 339.191,259.457C338.238,259.457 337.141,262.82 335.914,269.555C335.52,271.695 335.09,273.207 334.621,274.091C334.297,274.685 334.008,274.988 333.773,274.988C333.559,274.988 333.449,274.703 333.449,274.16C333.449,273.281 332.891,271.172 331.777,267.844C330.625,264.406 329.867,262.695 329.473,262.695C329.184,262.695 329.004,262.785 328.934,262.965C328.844,263.145 328.609,263.234 328.23,263.234C327.781,263.234 327.203,262.91 326.484,262.246C325.766,261.598 325.422,261.074 325.422,260.699C325.422,260.52 325.711,259.922 326.305,258.914C326.914,257.906 327.293,257.422 327.438,257.422Z" style="fill:rgb(248,169,53);fill-rule:nonzero;"/>
                        </g>
                        <g transform="matrix(0.99982,-0.0189581,0.0189581,0.99982,-5.31223,5.46781)">
                            <path d="M323.027,238.324C323.047,238.523 323.027,238.664 322.992,238.754C322.957,238.828 322.922,238.828 322.867,238.773C322.793,238.719 322.738,238.594 322.688,238.434C322.145,237.027 321.895,235.66 321.93,234.309C321.965,232.977 322.324,232.113 323.012,231.754C323.766,231.32 324.539,231.41 325.367,232.004C326.18,232.602 326.934,233.59 327.602,234.977C328.43,236.687 329.094,239.477 329.598,243.363C330.047,246.785 330.211,249.285 330.066,250.906C329.992,251.609 329.922,252.023 329.813,252.094C329.742,252.023 329.688,251.66 329.633,250.996C329.309,246.242 328.77,242.555 328.016,239.926C327.727,238.863 327.367,237.965 326.969,237.207C326.41,236.145 325.781,235.461 325.117,235.137C324.594,234.867 324.18,234.852 323.891,235.082C323.316,235.57 323.012,236.648 323.027,238.324Z" style="fill:rgb(234,100,59);fill-rule:nonzero;"/>
                        </g>
                        <g transform="matrix(0.99982,-0.0189581,0.0189581,0.99982,-5.31223,5.46781)">
                            <path d="M354.492,261.758C354.492,263.09 353.934,264.605 352.855,266.297C351.719,268.06 350.281,269.57 348.516,270.812C347.813,271.316 347.398,271.57 347.273,271.57C347.238,271.57 347.238,271.552 347.238,271.516C347.238,271.427 347.527,271.047 348.121,270.398C351.035,267.215 352.492,265.09 352.492,264.027C352.492,263.02 352.027,262.516 351.09,262.516C350.566,262.516 350.102,262.66 349.688,262.93C349.379,263.145 349.184,263.254 349.109,263.289C349.055,263.234 348.984,263.199 348.91,263.164C348.93,263.074 348.984,262.785 349.055,262.355C349.523,260.156 350.621,259.078 352.332,259.078C353.773,259.078 354.492,259.961 354.492,261.758Z" style="fill:rgb(0,162,180);fill-rule:nonzero;"/>
                        </g>
                        <g transform="matrix(0.99982,-0.0189581,0.0189581,0.99982,-5.31223,5.46781)">
                            <path d="M208.945,298.137C208.945,298.57 208.836,299.129 208.602,299.812C208.313,300.711 207.973,301.18 207.574,301.18C207.414,301.18 207.055,300.82 206.496,300.117C205.957,299.414 205.379,299.074 204.785,299.074C203.488,299.074 202.285,302.133 201.188,308.289C200.699,311.027 200.16,313.887 199.566,316.875C199.152,317.633 198.793,318.008 198.504,318.008C198.234,318.008 198.109,317.668 198.109,316.984C198.109,315.852 197.496,313.293 196.254,309.316C194.992,305.176 194.113,303.125 193.625,303.125C193.266,303.125 193.031,303.23 192.941,303.465C192.836,303.684 192.547,303.809 192.059,303.809C191.504,303.809 190.781,303.395 189.883,302.582C188.98,301.773 188.551,301.109 188.551,300.621C188.551,300.406 188.91,299.668 189.664,298.406C190.422,297.148 190.891,296.535 191.09,296.535C192.906,296.535 194.543,297.617 195.984,299.777C197.441,301.937 198.449,304.762 199.043,308.234C199.098,308.594 199.133,308.812 199.133,308.867C199.207,308.973 199.242,308.973 199.277,308.867C199.313,308.812 199.387,308.594 199.531,308.234C199.816,306.164 200.539,303.051 201.672,298.91C202.914,295.961 204.266,294.484 205.723,294.484C206.477,294.484 207.215,294.988 207.973,295.996C208.621,296.879 208.945,297.578 208.945,298.137ZM198.395,319.523C196.938,322.871 193.949,325.965 189.414,328.793C183.887,332.246 176.488,335.703 167.219,339.141C166.391,339.43 165.852,339.59 165.547,339.59C165.422,339.59 165.367,339.555 165.367,339.484C165.367,339.285 165.836,338.906 166.77,338.312C168.426,337.234 172.512,334.93 179.027,331.383C184.625,328.324 188.406,326.02 190.402,324.488C192.313,323.156 194.617,321.305 197.281,318.926C198.414,317.379 199.098,316.586 199.332,316.586C199.387,316.586 199.422,316.625 199.422,316.676C199.422,317.039 199.078,317.992 198.395,319.523Z" style="fill:rgb(0,162,180);fill-rule:nonzero;"/>
                        </g>
                        <g transform="matrix(0.99982,-0.0189581,0.0189581,0.99982,-5.31223,5.46781)">
                            <path d="M162.863,318.531C163.172,316.93 164.016,313.906 165.422,309.441C166.355,306.488 166.77,303.609 166.645,300.801C166.375,295.961 164.25,291.551 160.289,287.57C159.965,287.246 159.91,286.887 160.145,286.492L161.605,283.918C161.73,283.684 161.945,283.684 162.234,283.918C166.34,287.266 168.445,292.27 168.59,298.91C168.641,302.258 168.031,306.004 166.734,310.145C165.293,314.625 164.555,317.434 164.484,318.531C164.41,319.574 164.594,320.512 165.023,321.34C165.438,322.168 165.996,322.602 166.68,322.602C167.527,322.602 168.48,321.555 169.559,319.504C169.648,319.305 169.758,319.16 169.848,319.055C169.957,319 169.992,319.02 169.992,319.109C170.027,319.215 170.027,319.379 169.992,319.594C169.109,324.383 167.688,326.793 165.707,326.793C163.656,326.793 162.629,324.922 162.629,321.176C162.629,320.332 162.703,319.449 162.863,318.531Z" style="fill:rgb(234,100,59);fill-rule:nonzero;"/>
                        </g>
                        <g transform="matrix(0.99982,-0.0189581,0.0189581,0.99982,-5.31223,5.46781)">
                            <path d="M184.59,261.742C186.301,261.742 188.027,263.398 189.758,266.711C191.32,269.75 192.402,273.138 193.031,276.88C193.086,277.238 193.121,277.437 193.121,277.508C193.195,277.602 193.23,277.602 193.266,277.508C193.301,277.437 193.391,277.238 193.52,276.88C193.969,273.656 194.852,269.41 196.145,264.117C197.387,261.164 198.738,259.691 200.195,259.691C200.953,259.691 201.691,260.195 202.445,261.203C203.094,262.082 203.418,262.785 203.418,263.344C203.418,263.777 203.309,264.316 203.074,265C202.789,265.918 202.445,266.367 202.051,266.367C201.887,266.367 201.527,266.027 200.988,265.324C200.43,264.621 199.855,264.281 199.277,264.281C198.07,264.281 196.703,268.492 195.176,276.914C194.688,279.599 194.148,281.488 193.555,282.586C193.141,283.34 192.781,283.719 192.492,283.719C192.223,283.719 192.098,283.379 192.098,282.695C192.098,281.578 191.395,278.935 190.008,274.773C188.566,270.474 187.613,268.328 187.129,268.328C186.77,268.328 186.535,268.437 186.445,268.672C186.336,268.888 186.047,269.013 185.563,269.013C185.004,269.013 184.285,268.602 183.383,267.789C182.484,266.98 182.051,266.312 182.051,265.828C182.051,265.613 182.41,264.875 183.168,263.613C183.926,262.355 184.391,261.742 184.59,261.742Z" style="fill:rgb(248,169,53);fill-rule:nonzero;"/>
                        </g>
                        <g transform="matrix(0.99982,-0.0189581,0.0189581,0.99982,-5.31223,5.46781)">
                            <path d="M181.566,281.559C181.566,282.766 181.063,284.117 180.09,285.645C179.082,287.23 177.77,288.598 176.184,289.715C175.555,290.164 175.176,290.398 175.051,290.398C175.031,290.398 175.031,290.379 175.031,290.363C175.031,290.254 175.301,289.93 175.824,289.336C178.453,286.473 179.766,284.566 179.766,283.613C179.766,282.695 179.336,282.242 178.488,282.242C178.039,282.242 177.605,282.371 177.227,282.621C176.957,282.801 176.777,282.91 176.707,282.926C176.672,282.891 176.598,282.855 176.527,282.836C176.563,282.73 176.598,282.496 176.672,282.102C177.102,280.121 178.074,279.148 179.621,279.148C180.918,279.148 181.566,279.957 181.566,281.559Z" style="fill:rgb(0,162,180);fill-rule:nonzero;"/>
                        </g>
                        <g transform="matrix(0.99982,-0.0189581,0.0189581,0.99982,-5.31223,5.46781)">
                            <path d="M180.809,318.73C181.457,318.73 182.09,318.441 182.664,317.883C183.348,317.219 183.691,316.406 183.691,315.418C183.691,314.336 183.078,313.797 181.855,313.797C181.313,313.797 180.848,313.961 180.449,314.301C180.449,313.652 180.898,312.684 181.781,311.352C182.594,310.109 183.383,309.117 184.176,308.398C184.355,308.184 184.43,308 184.355,307.84C184.301,307.695 184.176,307.676 183.961,307.805C182.934,308.434 181.836,309.605 180.664,311.352C179.336,313.293 178.668,314.969 178.668,316.371C178.668,317.937 179.371,318.73 180.809,318.73Z" style="fill:rgb(248,169,53);fill-rule:nonzero;"/>
                        </g>
                        <g transform="matrix(0.99982,-0.0189581,0.0189581,0.99982,-5.31223,5.46781)">
                            <path d="M155.195,305.609C155.285,305.41 155.395,305.266 155.484,305.156C155.594,305.105 155.629,305.121 155.629,305.211C155.664,305.301 155.664,305.465 155.629,305.699C154.766,310.484 153.324,312.879 151.344,312.879C149.219,312.879 148.176,311.117 148.176,307.605C148.176,303.27 149.418,298.73 151.922,293.98C152.551,292.809 152.91,292.199 153.055,292.18C153.07,292.18 153.09,292.199 153.09,292.215C153.09,292.449 152.91,293.117 152.551,294.23C150.93,299.184 150.121,302.637 150.121,304.617C150.121,307.316 150.84,308.687 152.316,308.687C153.16,308.687 154.117,307.66 155.195,305.609Z" style="fill:rgb(234,100,59);fill-rule:nonzero;"/>
                        </g>
                        <g transform="matrix(0.99982,-0.0189581,0.0189581,0.99982,-5.31223,5.46781)">
                            <path d="M406.352,364.34C404.012,366.449 401.004,367.508 397.313,367.508C396.16,367.508 395.227,367.203 394.508,366.609C393.785,366.016 393.426,365.258 393.426,364.34C393.426,362.723 394.094,361.102 395.461,359.48C396.793,358.059 398.141,356.621 399.492,355.199C399.781,354.891 399.691,354.656 399.258,354.496C398.25,354.137 397.172,353.973 396.02,353.973C395.387,353.973 394.703,354.137 393.949,354.496C393.785,354.566 393.68,354.586 393.625,354.531C393.59,354.496 393.59,354.371 393.66,354.191C394.129,353.055 394.613,352.301 395.102,351.941C395.695,351.473 396.594,351.238 397.816,351.238C400.555,351.238 401.922,351.902 401.922,353.234C401.922,354.242 401.039,355.664 399.277,357.52C398.051,358.797 396.809,360.074 395.551,361.355C395.027,362.055 394.758,362.648 394.758,363.152C394.758,364.27 396.02,364.844 398.539,364.844C400.859,364.844 403.379,364.434 406.063,363.641C406.816,363.422 407.195,363.371 407.195,363.461C407.195,363.551 406.906,363.855 406.352,364.34Z" style="fill:rgb(0,162,180);fill-rule:nonzero;"/>
                        </g>
                        <g transform="matrix(0.824222,-0.0486521,0.0486521,0.824222,45.0943,80.1343)">
                            <path d="M338.527,357.395C338.977,356.855 340.004,356.422 341.566,356.078C343.152,355.738 344.27,355.754 344.898,356.133C345.059,356.242 345.328,356.672 345.691,357.449C346.066,358.223 346.23,358.672 346.176,358.816C345.691,359.914 345.203,360.992 344.699,362.055C344.141,363.461 343.906,364.574 344.035,365.402C348.75,367.293 352.926,369.742 356.527,372.766C357.59,373.664 358.559,374.672 359.461,375.824C359.766,376.238 359.91,376.473 359.875,376.547C359.785,376.652 359.117,376.168 357.859,375.125C355.77,373.379 353.016,371.578 349.559,369.723C346.121,367.871 344.18,366.773 343.746,366.41C342.305,365.187 341.586,363.891 341.586,362.488C341.605,361.82 341.891,360.797 342.484,359.445C341.676,359.52 341.082,359.75 340.738,360.164C340.578,360.363 340.578,360.832 340.738,361.586C340.902,362.344 340.957,362.738 340.922,362.793C340.848,362.883 340.613,362.738 340.254,362.379C338.148,360.184 337.57,358.527 338.527,357.395Z" style="fill:rgb(0,162,180);fill-rule:nonzero;"/>
                        </g>
                        <g transform="matrix(0.99982,-0.0189581,0.0189581,0.99982,-5.31223,5.46781)">
                            <path d="M411.875,313.094C412.199,313.727 412.184,314.84 411.84,316.426C411.496,318.008 411.031,319.02 410.438,319.434C410.273,319.539 409.77,319.613 408.906,319.629C408.043,319.664 407.574,319.629 407.465,319.523C406.676,318.621 405.883,317.738 405.109,316.84C404.063,315.758 403.129,315.113 402.316,314.879C398.664,318.422 394.723,321.215 390.492,323.285C389.25,323.895 387.918,324.363 386.516,324.723C386.012,324.832 385.738,324.867 385.688,324.812C385.633,324.687 386.336,324.273 387.809,323.555C390.258,322.367 393.012,320.566 396.109,318.172C399.203,315.777 401.004,314.465 401.508,314.211C403.219,313.383 404.711,313.258 405.973,313.832C406.586,314.105 407.395,314.805 408.383,315.902C408.652,315.113 408.672,314.48 408.438,313.996C408.328,313.762 407.898,313.582 407.141,313.418C406.402,313.258 406.008,313.148 405.973,313.094C405.918,312.988 406.133,312.844 406.621,312.664C409.48,311.621 411.227,311.781 411.875,313.094Z" style="fill:rgb(248,169,53);fill-rule:nonzero;"/>
                        </g>
                        <g transform="matrix(0.99982,-0.0189581,0.0189581,0.99982,-5.31223,5.46781)">
                            <path d="M257.887,343.715C256.609,344.09 255.871,344.289 255.672,344.289C255.637,344.289 255.617,344.273 255.617,344.254C255.617,344.184 256.086,343.84 257.058,343.262C257.957,342.777 259.363,341.789 261.269,340.348C262.223,339.41 263.574,337.918 265.301,335.867C266.508,334.461 267.785,333.254 269.137,332.246C270.809,331.023 272.484,330.43 274.156,330.43C274.555,330.43 275.094,330.539 275.742,330.773C276.406,330.988 276.965,331.113 277.434,331.113C278.297,331.113 279,330.773 279.539,330.125C279.953,329.457 280.387,328.809 280.801,328.145C281.105,327.676 281.375,327.441 281.609,327.441C281.734,327.441 281.789,327.551 281.789,327.766C281.789,328.07 281.645,328.574 281.359,329.277C281.23,329.621 282.043,329.801 283.824,329.801C284.023,329.801 284.113,329.746 284.148,329.656C284.164,329.602 284.059,329.168 283.824,328.324C283.754,328.09 283.859,327.746 284.148,327.297C284.617,326.504 284.887,326.145 284.992,326.254C285.406,326.668 285.625,327.316 285.625,328.18C285.625,328.898 285.445,329.746 285.102,330.719C284.777,331.672 284.453,332.266 284.148,332.465C283.34,333.004 282.113,332.859 280.422,332.051C279.02,333.527 277.633,334.281 276.266,334.281C275.867,334.281 275.363,334.172 274.734,333.957C274.121,333.742 273.652,333.633 273.348,333.633C271.043,333.633 268.688,334.73 266.293,336.926C264.563,338.637 262.816,340.348 261.055,342.059C260.012,342.867 258.949,343.406 257.887,343.715Z" style="fill:rgb(0,162,180);fill-rule:nonzero;"/>
                        </g>
                        <g transform="matrix(0.99982,-0.0189581,0.0189581,0.99982,-5.31223,5.46781)">
                            <path d="M313.957,344.414C313.957,345.621 313.453,346.973 312.48,348.5C311.473,350.086 310.156,351.453 308.574,352.57C307.945,353.02 307.566,353.254 307.441,353.254C307.422,353.254 307.422,353.234 307.422,353.219C307.422,353.109 307.691,352.785 308.215,352.191C310.844,349.328 312.156,347.422 312.156,346.469C312.156,345.551 311.723,345.102 310.879,345.102C310.43,345.102 309.996,345.227 309.617,345.477C309.348,345.656 309.168,345.766 309.098,345.785C309.059,345.746 308.988,345.711 308.914,345.695C308.953,345.586 308.988,345.352 309.059,344.957C309.492,342.977 310.465,342.004 312.012,342.004C313.309,342.004 313.957,342.812 313.957,344.414Z" style="fill:rgb(234,100,59);fill-rule:nonzero;"/>
                        </g>
                        <g transform="matrix(0.99982,-0.0189581,0.0189581,0.99982,-5.31223,5.46781)">
                            <path d="M224.316,336.801C224.965,336.801 225.594,336.512 226.172,335.957C226.855,335.289 227.195,334.48 227.195,333.488C227.195,332.41 226.586,331.871 225.359,331.871C224.82,331.871 224.352,332.031 223.957,332.375C223.957,331.727 224.406,330.754 225.289,329.422C226.098,328.18 226.891,327.191 227.684,326.469C227.863,326.254 227.934,326.074 227.863,325.91C227.809,325.77 227.684,325.75 227.465,325.875C226.441,326.504 225.344,327.676 224.172,329.422C222.84,331.367 222.176,333.039 222.176,334.445C222.176,336.008 222.875,336.801 224.316,336.801Z" style="fill:rgb(234,100,59);fill-rule:nonzero;"/>
                        </g>
                        <g transform="matrix(0.99982,-0.0189581,0.0189581,0.99982,-5.31223,5.46781)">
                            <path d="M239.039,360.543C239.867,360.543 240.641,360.184 241.379,359.48C242.227,358.672 242.641,357.645 242.641,356.402C242.641,355.07 241.883,354.387 240.371,354.387C239.688,354.387 239.113,354.605 238.609,355.02C238.609,354.227 239.164,352.984 240.281,351.309C241.273,349.762 242.262,348.539 243.27,347.621C243.504,347.352 243.574,347.117 243.484,346.918C243.434,346.738 243.27,346.719 243,346.883C241.703,347.672 240.336,349.148 238.879,351.309C237.203,353.738 236.375,355.828 236.375,357.59C236.375,359.555 237.258,360.543 239.039,360.543Z" style="fill:rgb(0,162,180);fill-rule:nonzero;"/>
                        </g>
                        <g transform="matrix(0.99982,-0.0189581,0.0189581,0.99982,-5.31223,5.46781)">
                            <path d="M285.086,366.16C285.91,366.16 286.688,365.801 287.426,365.098C288.27,364.289 288.684,363.262 288.684,362.02C288.684,360.687 287.93,360.004 286.414,360.004C285.73,360.004 285.156,360.219 284.652,360.633C284.652,359.84 285.211,358.602 286.324,356.926C287.316,355.379 288.305,354.152 289.313,353.234C289.547,352.965 289.621,352.73 289.531,352.535C289.477,352.355 289.313,352.336 289.043,352.496C287.746,353.289 286.379,354.766 284.922,356.926C283.246,359.355 282.422,361.445 282.422,363.207C282.422,365.168 283.301,366.16 285.086,366.16Z" style="fill:rgb(0,162,180);fill-rule:nonzero;"/>
                        </g>
                        <g transform="matrix(0.99982,-0.0189581,0.0189581,0.99982,-5.31223,5.46781)">
                            <path d="M335.18,329.062C335.18,330.27 334.676,331.617 333.703,333.148C332.695,334.73 331.379,336.102 329.797,337.215C329.164,337.664 328.789,337.898 328.66,337.898C328.645,337.898 328.645,337.883 328.645,337.863C328.645,337.754 328.914,337.434 329.438,336.836C332.063,333.977 333.379,332.066 333.379,331.113C333.379,330.195 332.945,329.746 332.102,329.746C331.648,329.746 331.219,329.871 330.84,330.125C330.57,330.305 330.391,330.41 330.316,330.43C330.281,330.395 330.211,330.359 330.137,330.34C330.176,330.23 330.211,329.996 330.281,329.602C330.715,327.621 331.688,326.648 333.234,326.648C334.531,326.648 335.18,327.461 335.18,329.062Z" style="fill:rgb(248,169,53);fill-rule:nonzero;"/>
                        </g>
                        <g transform="matrix(0.99982,-0.0189581,0.0189581,0.99982,-5.31223,5.46781)">
                            <path d="M331.777,370.496C332.426,370.496 333.055,370.211 333.629,369.652C334.313,368.984 334.656,368.176 334.656,367.187C334.656,366.105 334.043,365.566 332.82,365.566C332.281,365.566 331.813,365.727 331.414,366.07C331.414,365.422 331.867,364.449 332.746,363.117C333.559,361.875 334.352,360.887 335.141,360.164C335.32,359.949 335.395,359.77 335.32,359.609C335.27,359.465 335.141,359.445 334.926,359.57C333.898,360.203 332.801,361.371 331.633,363.117C330.301,365.062 329.633,366.734 329.633,368.141C329.633,369.707 330.336,370.496 331.777,370.496Z" style="fill:rgb(248,169,53);fill-rule:nonzero;"/>
                        </g>
                        <g transform="matrix(0.99982,-0.0189581,0.0189581,0.99982,-5.31223,5.46781)">
                            <path d="M255.582,301.937C256.23,301.937 256.859,301.648 257.437,301.09C258.121,300.422 258.461,299.613 258.461,298.625C258.461,297.543 257.851,297.004 256.625,297.004C256.086,297.004 255.617,297.164 255.223,297.508C255.223,296.859 255.672,295.887 256.555,294.555C257.363,293.312 258.156,292.324 258.949,291.605C259.129,291.387 259.199,291.207 259.129,291.047C259.074,290.902 258.949,290.883 258.73,291.008C257.707,291.641 256.609,292.809 255.438,294.555C254.105,296.5 253.441,298.172 253.441,299.578C253.441,301.145 254.141,301.937 255.582,301.937Z" style="fill:rgb(248,169,53);fill-rule:nonzero;"/>
                        </g>
                    </g>
                </g>
            </g>
        </g>
    </g>
</svg>
