<?xml version="1.0" encoding="UTF-8" standalone="no"?>
<!DOCTYPE svg PUBLIC "-//W3C//DTD SVG 1.1//EN" "http://www.w3.org/Graphics/SVG/1.1/DTD/svg11.dtd">
<svg width="100%" height="100%" viewBox="0 0 622 904" version="1.1" xmlns="http://www.w3.org/2000/svg" xmlns:xlink="http://www.w3.org/1999/xlink" xml:space="preserve" xmlns:serif="http://www.serif.com/" style="fill-rule:evenodd;clip-rule:evenodd;stroke-linejoin:round;stroke-miterlimit:2;">
    <g transform="matrix(1,0,0,1,-39,-48.4332)">
        <g transform="matrix(7.35829,0,0,7.35829,-1864.88,-1003.75)">
            <g transform="matrix(0.903134,0,0,0.903134,29.1572,-75.3019)">
                <g transform="matrix(0.512803,0,0,0.512803,147.787,145.803)">
                    <path d="M290.574,203.621C290.574,200.488 290.09,197.914 289.117,195.898C289.117,194.766 290.016,192.062 291.836,187.797C292.066,187.277 292.285,187.023 292.48,187.023C292.645,187.023 292.844,187.293 293.113,187.852C293.633,188.984 294.84,192.047 296.711,197.031C298.711,202.234 299.863,205.437 300.188,206.645C300.438,207.562 300.582,208.246 300.582,208.695C300.582,210.152 299.195,209.289 296.426,206.051C296.102,205.672 295.938,205.887 295.938,206.699C295.938,206.984 296.516,214.906 297.648,230.422C298.781,245.957 299.359,254.957 299.359,257.422C299.359,265.02 298.188,271.695 295.883,277.457C295.398,278.625 295.02,279.488 294.715,280.047C294.266,280.785 293.992,280.875 293.887,280.336C293.762,279.777 293.813,278.555 294.031,276.664C294.316,274.055 294.48,271.013 294.48,267.539C294.48,264.406 293.813,253.66 292.52,235.266C291.223,216.867 290.574,206.32 290.574,203.621Z" style="fill:rgb(243,94,8);fill-rule:nonzero;"/>
                </g>
                <g transform="matrix(0.512803,0,0,0.512803,147.787,145.803)">
                    <path d="M330.785,259.312C329.129,254.289 328.016,249.609 327.422,245.234C327.203,243.543 327.043,242.52 326.934,242.121C326.699,241.203 326.27,240.305 325.621,239.441C326.07,237.926 326.789,235.84 327.762,233.141C328.086,232.348 328.391,231.969 328.645,231.969C328.879,231.969 329.273,232.348 329.867,233.141C332.441,236.723 334.602,239.926 336.348,242.75C337.066,243.922 337.43,244.75 337.43,245.234C337.43,245.594 337.266,245.777 336.941,245.777C336.293,245.777 335.125,245.234 333.434,244.172C333.27,244.172 333.145,244.281 333.035,244.516C333.629,246.621 334.566,249.539 335.863,253.246C338.797,261.578 340.273,267.645 340.273,271.461C340.273,275.258 339.695,278.591 338.563,281.414C336.672,286.238 333.395,288.652 328.754,288.652C323.801,288.652 319.895,286.492 317.035,282.207C315.305,279.633 313.777,275.781 312.445,270.633C311.867,275.816 310.211,280.266 307.512,284.008C304.199,288.543 299.953,290.812 294.785,290.812C289.078,290.812 285.102,288.094 282.816,282.641C281.555,279.578 280.926,275.996 280.926,271.859C280.926,266.387 281.574,261.293 282.871,256.574C283.211,255.297 283.391,254.453 283.391,254.039C283.391,253.805 283.34,253.695 283.211,253.695C282.977,253.695 282.457,254.324 281.645,255.586C280.367,257.582 279.035,261.617 277.633,267.699C275.813,275.547 274.625,280.281 274.066,281.902C273.328,284.152 272.27,285.969 270.898,287.336C269.801,288.473 268.828,289.047 268.02,289.047C264.383,289.047 261.558,286.727 259.578,282.102C257.957,278.266 257.148,273.621 257.148,268.187C257.148,264.387 257.722,260.246 258.894,255.785C259.164,254.777 259.414,254.039 259.687,253.535C260.027,252.922 260.281,252.852 260.406,253.301C260.531,253.82 260.476,254.738 260.207,256.07C259.558,259.473 259.234,262.57 259.234,265.414C259.234,276.41 261.539,281.918 266.164,281.918C268.145,281.918 269.801,280.426 271.098,277.474C271.906,275.621 272.898,272.074 274.066,266.871C275.418,261.113 276.551,256.898 277.488,254.219C278.566,251.156 279.898,248.441 281.504,246.062C283.211,243.398 284.723,242.066 285.984,242.066C287.027,242.066 287.551,243.164 287.551,245.379C287.551,247.215 287.027,250.906 285.984,256.484C284.941,262.082 284.438,265.828 284.438,267.755C284.438,271.91 285.301,275.169 287.047,277.508C288.773,279.867 291.203,281.039 294.281,281.039C299.879,281.039 304.094,279.273 306.883,275.766C309.098,272.992 310.211,269.57 310.211,265.504C310.211,261.598 309.871,257.816 309.223,254.184C308.773,251.609 308.141,249.16 307.367,246.855C306.719,244.84 306.395,243.887 306.395,244.012C306.395,241.781 307.117,238.719 308.594,234.832C308.914,233.984 309.168,233.57 309.367,233.57C309.602,233.57 309.961,234.129 310.48,235.227C312.57,239.566 314.207,246.207 315.414,255.152C316.547,263.523 318.188,269.5 320.328,273.102C322.453,276.699 325.691,278.5 330.066,278.5C333.703,278.5 336.098,277.169 337.23,274.539C337.23,273.621 336.473,271.677 334.945,268.672C332.98,264.875 331.613,261.742 330.785,259.312Z" style="fill:rgb(243,94,8);fill-rule:nonzero;"/>
                </g>
                <g transform="matrix(0.512803,0,0,0.512803,147.787,145.803)">
                    <path d="M319.934,222.555C319.934,223.473 319.715,224.426 319.32,225.398C318.781,226.66 318.098,227.309 317.25,227.309C315.918,227.309 314.965,226.391 314.406,224.57C313.777,226.91 312.625,228.082 310.934,228.082C310.301,228.082 309.742,227.758 309.277,227.129C308.754,226.371 308.484,225.398 308.484,224.176L308.484,221.297C308.484,221.062 308.32,220.898 307.996,220.809C307.676,220.703 307.531,220.469 307.531,220.07C307.531,219.422 307.801,218.812 308.34,218.199C308.824,217.66 309.203,217.391 309.457,217.391C309.781,217.391 309.961,218.02 309.961,219.297C309.961,219.945 309.906,220.504 309.797,220.937C309.691,221.387 309.637,221.781 309.637,222.105C309.637,222.789 309.762,223.437 310.051,224.066C310.375,224.789 310.789,225.164 311.273,225.164C311.902,225.164 312.496,224.879 313.055,224.301C313.598,223.727 313.883,223.059 313.883,222.285C313.883,221.836 313.758,221.078 313.488,220C313.234,218.918 313.109,218.254 313.109,217.984C313.109,217.75 313.219,217.391 313.453,216.887C313.688,216.383 313.867,216.129 313.992,216.129C314.191,216.129 314.477,216.852 314.801,218.273C315.145,219.695 315.324,220.754 315.324,221.441C315.324,223.402 316.078,224.391 317.609,224.391C318.258,224.391 318.672,224.051 318.836,223.402C317.52,221.098 316.871,219.352 316.871,218.129C316.871,217.426 317.051,216.812 317.395,216.273C317.629,215.895 317.789,215.699 317.879,215.68C317.988,215.68 318.043,215.914 318.098,216.383C318.168,217.031 318.277,217.57 318.422,217.984C318.438,218.039 318.762,218.848 319.355,220.414C319.734,221.352 319.934,222.07 319.934,222.555Z" style="fill:rgb(0,162,181);fill-rule:nonzero;"/>
                </g>
                <g transform="matrix(0.512803,0,0,0.512803,147.787,145.803)">
                    <path d="M303.336,214.367C307.906,212.746 312.859,211 318.203,209.09C318.582,208.965 318.797,208.91 318.871,208.965C318.961,209.039 318.941,209.234 318.797,209.559C318.367,210.586 318.043,211.215 317.773,211.414C313.273,212.98 308.07,215.051 302.148,217.605C302.398,216.617 302.797,215.535 303.336,214.367Z" style="fill:rgb(243,94,8);fill-rule:nonzero;"/>
                </g>
                <g transform="matrix(0.512803,0,0,0.512803,147.787,145.803)">
                    <path d="M279.379,231.449C278.766,230.117 277.738,229.145 276.281,228.531C276.281,229.809 276.156,230.855 275.867,231.664C276.047,231.699 277.184,231.863 279.234,232.148C279.359,232.168 279.449,232.168 279.484,232.113C279.574,232.023 279.539,231.789 279.379,231.449ZM274.789,231.449C274.969,230.766 274.969,230.043 274.789,229.27C274.57,228.422 274.195,228.008 273.652,228.008C273.348,228.008 272.934,228.281 272.395,228.801C271.855,229.34 271.586,229.754 271.586,230.043C271.586,230.691 272.645,231.16 274.789,231.449ZM271.332,227.687C270.918,226.227 271.008,225.203 271.621,224.59C272.09,224.121 272.645,223.887 273.277,223.887C273.887,223.887 274.59,224.086 275.383,224.52C278.152,226.031 279.988,227.883 280.906,230.062C280.98,230.207 281.016,230.402 281.016,230.637C281.016,231.375 280.781,232.258 280.297,233.23C279.828,234.219 279.379,234.707 278.93,234.707C278.766,234.707 277.488,234.578 275.059,234.328C273.852,236.02 272.34,237.531 270.539,238.863C268.398,240.43 266.438,241.617 264.652,242.41C264.293,242.609 262.223,243.383 258.48,244.77C257.887,244.984 257.488,245.09 257.273,245.09C257.183,245.09 257.148,245.055 257.148,245.02C257.148,244.895 257.472,244.625 258.156,244.172C260.89,242.555 263.645,240.934 266.383,239.312C269.516,237.461 271.945,235.715 273.652,234.074C271.477,233.59 270.395,232.602 270.395,231.125C270.395,229.898 270.703,228.766 271.332,227.687Z" style="fill:rgb(0,162,181);fill-rule:nonzero;"/>
                </g>
                <g transform="matrix(0.512803,0,0,0.512803,147.787,145.803)">
                    <path d="M348.57,310.27C353.141,308.648 358.094,306.902 363.438,304.996C363.816,304.871 364.031,304.816 364.105,304.871C364.195,304.941 364.176,305.141 364.031,305.465C363.602,306.488 363.277,307.121 363.008,307.316C358.508,308.883 353.305,310.953 347.383,313.508C347.633,312.52 348.031,311.441 348.57,310.27Z" style="fill:rgb(243,94,8);fill-rule:nonzero;"/>
                </g>
                <g transform="matrix(0.512803,0,0,0.512803,147.787,145.803)">
                    <path d="M293.418,309.801C299.934,307.426 306.848,304.906 314.152,302.223C314.531,302.098 314.746,302.043 314.82,302.098C314.91,302.168 314.891,302.367 314.746,302.691C314.316,303.719 313.992,304.348 313.723,304.547C307.586,306.758 300.422,309.566 292.23,312.969C292.48,311.996 292.879,310.953 293.418,309.801Z" style="fill:rgb(0,162,181);fill-rule:nonzero;"/>
                </g>
                <g transform="matrix(0.512803,0,0,0.512803,147.787,145.803)">
                    <path d="M225.469,386.391C231.984,384.016 238.895,381.496 246.203,378.813C246.582,378.687 246.797,378.633 246.871,378.687C246.961,378.758 246.941,378.957 246.797,379.281C246.367,380.309 246.043,380.937 245.773,381.137C239.633,383.352 232.469,386.156 224.281,389.559C224.531,388.586 224.93,387.543 225.469,386.391Z" style="fill:rgb(243,94,8);fill-rule:nonzero;"/>
                </g>
                <g transform="matrix(0.512803,0,0,0.512803,147.787,145.803)">
                    <path d="M266.527,327.027C266.527,328.234 266.023,329.582 265.051,331.113C264.043,332.699 262.727,334.066 261.144,335.184C260.515,335.633 260.137,335.867 260.012,335.867C259.992,335.867 259.992,335.848 259.992,335.828C259.992,335.723 260.262,335.398 260.785,334.805C263.41,331.941 264.727,330.035 264.727,329.078C264.727,328.16 264.293,327.711 263.449,327.711C262.996,327.711 262.566,327.836 262.188,328.09C261.918,328.27 261.738,328.379 261.664,328.395C261.629,328.359 261.558,328.324 261.484,328.305C261.523,328.199 261.558,327.965 261.629,327.566C262.062,325.586 263.035,324.617 264.582,324.617C265.879,324.617 266.527,325.426 266.527,327.027Z" style="fill:rgb(243,94,8);fill-rule:nonzero;"/>
                </g>
                <g transform="matrix(0.512803,0,0,0.512803,147.787,145.803)">
                    <path d="M366.102,371.883C366.102,373.09 365.598,374.441 364.625,375.969C363.617,377.555 362.305,378.922 360.719,380.039C360.09,380.488 359.711,380.723 359.586,380.723C359.566,380.723 359.566,380.703 359.566,380.687C359.566,380.578 359.84,380.254 360.359,379.66C362.988,376.797 364.301,374.891 364.301,373.937C364.301,373.02 363.871,372.566 363.023,372.566C362.574,372.566 362.141,372.695 361.766,372.945C361.492,373.125 361.313,373.234 361.242,373.25C361.207,373.215 361.133,373.18 361.063,373.16C361.098,373.055 361.133,372.82 361.207,372.422C361.637,370.445 362.609,369.473 364.156,369.473C365.453,369.473 366.102,370.281 366.102,371.883Z" style="fill:rgb(0,162,181);fill-rule:nonzero;"/>
                </g>
                <g transform="matrix(0.512803,0,0,0.512803,147.787,145.803)">
                    <path d="M231.496,430.023C233.207,430.023 234.938,431.68 236.664,434.992C238.23,438.035 239.309,441.418 239.941,445.16C239.992,445.523 240.031,445.719 240.031,445.793C240.102,445.883 240.137,445.883 240.176,445.793C240.211,445.719 240.301,445.523 240.426,445.16C240.875,441.941 241.758,437.691 243.055,432.398C244.297,429.449 245.645,427.973 247.105,427.973C247.859,427.973 248.598,428.477 249.355,429.484C250.004,430.367 250.324,431.066 250.324,431.625C250.324,432.059 250.219,432.598 249.984,433.281C249.695,434.199 249.355,434.648 248.957,434.648C248.797,434.648 248.438,434.309 247.895,433.605C247.34,432.902 246.762,432.562 246.188,432.562C244.98,432.562 243.613,436.773 242.082,445.199C241.598,447.879 241.055,449.77 240.461,450.867C240.047,451.625 239.688,452 239.398,452C239.129,452 239.004,451.66 239.004,450.977C239.004,449.859 238.301,447.215 236.914,443.055C235.477,438.754 234.523,436.613 234.035,436.613C233.676,436.613 233.441,436.719 233.352,436.953C233.242,437.168 232.957,437.297 232.469,437.297C231.91,437.297 231.191,436.883 230.293,436.07C229.391,435.262 228.961,434.594 228.961,434.109C228.961,433.895 229.32,433.156 230.074,431.895C230.832,430.637 231.301,430.023 231.496,430.023Z" style="fill:rgb(243,176,0);fill-rule:nonzero;"/>
                </g>
                <g transform="matrix(0.512803,0,0,0.512803,147.787,145.803)">
                    <path d="M219.652,444.496C219.742,444.262 219.852,444.117 219.941,444.047C220.016,443.992 220.066,444.008 220.086,444.102C220.121,444.191 220.121,444.352 220.086,444.586C219.871,446.441 219.328,448.094 218.504,449.57C217.676,451.031 216.773,451.77 215.801,451.77C214.723,451.785 213.91,451.246 213.355,450.094C212.813,448.961 212.563,447.43 212.633,445.504C212.723,443.129 213.641,439.652 215.352,435.062C216.863,431.031 218.16,428.168 219.258,426.477C219.742,425.723 220.086,425.324 220.246,425.309C220.266,425.434 220.121,425.867 219.797,426.621C217.352,432.059 215.785,436.449 215.063,439.797C214.777,441.129 214.633,442.336 214.633,443.414C214.633,444.91 214.902,446.043 215.461,446.781C215.875,447.41 216.324,447.664 216.773,447.574C217.711,447.375 218.684,446.352 219.652,444.496Z" style="fill:rgb(0,162,181);fill-rule:nonzero;"/>
                </g>
                <g transform="matrix(0.512803,0,0,0.512803,147.787,145.803)">
                    <path d="M214.469,377.984C214.543,377.824 214.598,377.715 214.668,377.68C214.723,377.625 214.758,377.645 214.777,377.699C214.813,377.77 214.813,377.895 214.777,378.059C214.613,379.391 214.234,380.594 213.641,381.656C213.047,382.703 212.398,383.242 211.68,383.242C210.926,383.258 210.328,382.863 209.934,382.035C209.539,381.227 209.359,380.109 209.41,378.723C209.465,377.016 210.133,374.512 211.375,371.199C212.453,368.301 213.391,366.23 214.184,365.008C214.543,364.484 214.777,364.199 214.883,364.18C214.902,364.27 214.813,364.574 214.559,365.117C212.813,369.039 211.68,372.207 211.156,374.621C210.941,375.574 210.852,376.437 210.852,377.211C210.852,378.293 211.051,379.102 211.445,379.641C211.754,380.09 212.059,380.273 212.383,380.199C213.066,380.055 213.77,379.316 214.469,377.984Z" style="fill:rgb(0,121,244);fill-rule:nonzero;"/>
                </g>
                <g transform="matrix(0.512803,0,0,0.512803,147.787,145.803)">
                    <path d="M243.773,295.473C243.918,295.223 244.063,295.078 244.188,295.004C244.277,294.953 244.332,294.969 244.352,295.094C244.387,295.223 244.367,295.402 244.277,295.672C243.703,297.832 242.785,299.723 241.559,301.324C240.336,302.926 239.129,303.645 237.977,303.484C236.699,303.34 235.816,302.547 235.352,301.109C234.883,299.668 234.848,297.797 235.242,295.527C235.766,292.719 237.422,288.742 240.246,283.574C242.695,279.023 244.727,275.836 246.313,274.021C247.016,273.207 247.48,272.794 247.68,272.777C247.68,272.937 247.445,273.441 246.926,274.271C243.125,280.316 240.516,285.285 239.094,289.137C238.535,290.687 238.156,292.09 237.977,293.367C237.727,295.148 237.871,296.52 238.391,297.508C238.805,298.316 239.273,298.695 239.832,298.66C240.984,298.586 242.297,297.527 243.773,295.473Z" style="fill:rgb(243,94,8);fill-rule:nonzero;"/>
                </g>
                <g transform="matrix(0.512803,0,0,0.512803,147.787,145.803)">
                    <path d="M343.367,287.66C344.609,287.66 345.852,288.852 347.094,291.242C348.211,293.422 349.004,295.852 349.453,298.551C349.488,298.805 349.523,298.965 349.523,299C349.559,299.074 349.598,299.074 349.633,299C349.648,298.965 349.703,298.805 349.793,298.551C350.137,296.23 350.766,293.168 351.703,289.371C352.586,287.246 353.555,286.187 354.617,286.187C355.156,286.187 355.699,286.547 356.238,287.266C356.707,287.895 356.941,288.418 356.941,288.812C356.941,289.121 356.852,289.516 356.688,290C356.473,290.668 356.238,290.992 355.949,290.992C355.824,290.992 355.57,290.738 355.176,290.234C354.781,289.75 354.367,289.496 353.953,289.496C353.09,289.496 352.098,292.523 351,298.586C350.641,300.516 350.262,301.863 349.828,302.672C349.523,303.215 349.273,303.484 349.055,303.484C348.875,303.484 348.785,303.23 348.785,302.746C348.785,301.937 348.281,300.047 347.273,297.039C346.246,293.945 345.547,292.414 345.203,292.414C344.934,292.414 344.773,292.484 344.699,292.648C344.629,292.809 344.43,292.898 344.07,292.898C343.676,292.898 343.152,292.594 342.504,292.02C341.875,291.422 341.551,290.957 341.551,290.613C341.551,290.453 341.82,289.91 342.344,289.012C342.883,288.113 343.223,287.66 343.367,287.66Z" style="fill:rgb(243,176,0);fill-rule:nonzero;"/>
                </g>
                <g transform="matrix(0.512803,0,0,0.512803,147.787,145.803)">
                    <path d="M347.832,275.766C347.832,276.574 347.488,277.474 346.844,278.5C346.176,279.562 345.293,280.461 344.23,281.219C343.816,281.504 343.566,281.668 343.492,281.668C343.477,281.668 343.477,281.648 343.477,281.633C343.477,281.578 343.656,281.344 343.996,280.965C345.762,279.06 346.645,277.781 346.645,277.133C346.645,276.539 346.355,276.23 345.797,276.23C345.473,276.23 345.203,276.305 344.953,276.484C344.754,276.609 344.645,276.685 344.594,276.685C344.555,276.664 344.52,276.63 344.465,276.63C344.484,276.555 344.52,276.396 344.574,276.125C344.844,274.81 345.512,274.16 346.535,274.16C347.398,274.16 347.832,274.703 347.832,275.766Z" style="fill:rgb(243,176,0);fill-rule:nonzero;"/>
                </g>
                <g transform="matrix(0.512803,0,0,0.512803,147.787,145.803)">
                    <path d="M289.098,299.289C289.098,300.605 288.648,301.863 287.746,303.051C286.793,304.348 285.66,304.996 284.383,304.996C283.051,304.996 282.383,304.348 282.383,303.051C282.383,302.117 282.906,300.746 283.949,298.965C285.012,297.164 285.91,296.285 286.668,296.285C287.316,296.285 287.891,296.57 288.379,297.129C288.848,297.707 289.098,298.426 289.098,299.289ZM287.945,300.766C287.945,299.559 287.102,298.949 285.445,298.949C285.211,298.949 284.813,299.324 284.258,300.082C283.699,300.855 283.43,301.379 283.43,301.684C283.625,302.117 284.238,302.332 285.301,302.332C287.063,302.332 287.945,301.809 287.945,300.766Z" style="fill:rgb(243,94,8);fill-rule:nonzero;"/>
                </g>
                <g transform="matrix(0.512803,0,0,0.512803,147.787,145.803)">
                    <path d="M336.203,354.242C342.719,351.867 349.633,349.348 356.941,346.664C357.316,346.539 357.535,346.484 357.605,346.539C357.695,346.613 357.68,346.809 357.535,347.133C357.102,348.16 356.777,348.789 356.508,348.988C350.371,351.203 343.207,354.008 335.016,357.41C335.27,356.441 335.664,355.395 336.203,354.242Z" style="fill:rgb(0,162,181);fill-rule:nonzero;"/>
                </g>
                <g transform="matrix(0.512803,0,0,0.512803,147.787,145.803)">
                    <path d="M222.895,402.16C227.07,399.621 232.578,396.852 239.438,393.824C245.484,391.16 248.832,389.828 249.496,389.828C249.57,389.848 249.605,389.902 249.605,389.992C249.605,390.262 249.426,390.695 249.086,391.305C248.742,391.898 248.473,392.242 248.258,392.313C246.277,393.051 242.426,394.781 236.734,397.516C230.383,400.594 225.379,403.203 221.707,405.363C221.902,404.426 222.301,403.348 222.895,402.16Z" style="fill:rgb(243,176,0);fill-rule:nonzero;"/>
                </g>
                <g transform="matrix(0.512803,0,0,0.512803,147.787,145.803)">
                    <path d="M271.676,250.187C271.676,251.391 271.172,252.742 270.199,254.273C269.191,255.855 267.875,257.223 266.293,258.34C265.66,258.789 265.285,259.023 265.156,259.023C265.141,259.023 265.141,259.004 265.141,258.988C265.141,258.879 265.41,258.555 265.934,257.961C268.559,255.102 269.875,253.191 269.875,252.238C269.875,251.32 269.441,250.871 268.598,250.871C268.145,250.871 267.715,250.996 267.336,251.246C267.066,251.426 266.887,251.535 266.813,251.555C266.777,251.52 266.707,251.48 266.633,251.465C266.672,251.355 266.707,251.121 266.777,250.727C267.211,248.746 268.184,247.773 269.73,247.773C271.027,247.773 271.676,248.582 271.676,250.187Z" style="fill:rgb(243,94,8);fill-rule:nonzero;"/>
                </g>
                <g transform="matrix(0.512803,0,0,0.512803,147.787,145.803)">
                    <path d="M385.363,370.859C385.648,369.902 385.723,368.969 385.559,368.016C385.363,366.988 384.895,366.465 384.156,366.465C383.797,366.465 383.309,366.629 382.699,366.969C382.086,367.312 381.781,367.652 381.781,367.977C381.781,368.715 382.969,369.687 385.363,370.859ZM383.508,375.051C380.484,373.484 378.988,371.848 378.988,370.121C378.988,368.5 379.746,366.809 381.277,365.043C382.805,363.281 384.371,362.414 385.957,362.414C387.484,362.414 388.262,363.605 388.262,365.98C388.262,367.691 387.898,369.633 387.16,371.777C388.637,372.621 389.594,373.379 390.043,374.027C389.988,374.945 389.305,376.312 388.008,378.164C387.539,377.52 386.621,376.781 385.219,375.934C380.754,382.18 371.41,387.852 357.156,392.961C356.309,393.25 355.77,393.41 355.535,393.41C355.48,393.41 355.41,393.375 355.355,393.305C355.355,393.141 355.789,392.766 356.672,392.187C357.551,391.594 362.195,388.949 370.621,384.23C376.414,381.008 380.719,377.949 383.508,375.051Z" style="fill:rgb(243,94,8);fill-rule:nonzero;"/>
                </g>
                <g transform="matrix(0.512803,0,0,0.512803,147.787,145.803)">
                    <path d="M343.367,386.41C343.367,387.023 342.594,388.391 341.063,390.551C339.316,392.961 337.66,394.742 336.098,395.859C335.09,396.562 331.758,397.676 326.09,399.172C325.078,399.422 324.574,399.516 324.574,399.461C324.648,399.352 324.988,399.063 325.621,398.578C326.359,398 328.375,396.867 331.668,395.121C334.836,393.449 336.691,392.367 337.23,391.898C337.32,391.793 337.375,391.703 337.375,391.613C337.375,390.855 334.547,390.496 328.934,390.496C328.914,390.496 327.836,390.531 325.691,390.621C324.664,390.676 324.16,390.605 324.16,390.422C324.16,390.281 324.289,389.992 324.539,389.543L326.539,386.156C327.133,385.168 328.195,384.555 329.742,384.285C330.301,384.195 331.598,384.16 333.648,384.16C340.129,384.16 343.367,384.898 343.367,386.41Z" style="fill:rgb(243,176,0);fill-rule:nonzero;"/>
                </g>
                <g transform="matrix(0.512803,0,0,0.512803,147.787,145.803)">
                    <path d="M293.852,390.441C300.367,388.066 307.277,385.547 314.586,382.863C314.965,382.738 315.18,382.684 315.254,382.738C315.344,382.809 315.324,383.008 315.18,383.332C314.746,384.359 314.426,384.988 314.152,385.187C308.016,387.398 300.852,390.207 292.66,393.609C292.914,392.637 293.309,391.594 293.852,390.441Z" style="fill:rgb(0,162,181);fill-rule:nonzero;"/>
                </g>
                <g transform="matrix(0.512803,0,0,0.512803,147.787,145.803)">
                    <path d="M308.32,208.641C308.051,209.199 307.855,209.543 307.676,209.668C307.547,209.777 307.457,209.703 307.441,209.453C307.441,209.199 307.492,208.84 307.637,208.391C307.766,207.941 307.926,207.129 308.141,205.922C308.41,201.711 306.574,197.84 302.578,194.352C302.348,194.152 302.309,193.883 302.488,193.574L303.535,191.723C303.625,191.559 303.785,191.559 303.984,191.723C307.676,194.457 309.512,198.219 309.512,202.973C309.512,205.059 309.113,206.949 308.32,208.641Z" style="fill:rgb(243,176,0);fill-rule:nonzero;"/>
                </g>
                <g transform="matrix(0.512803,0,0,0.512803,147.787,145.803)">
                    <path d="M281.879,212.691C281.953,212.531 282.008,212.422 282.078,212.387C282.133,212.332 282.168,212.352 282.188,212.402C282.223,212.477 282.223,212.602 282.188,212.766C282.023,214.094 281.645,215.301 281.051,216.363C280.457,217.406 279.809,217.949 279.09,217.949C278.336,217.965 277.738,217.57 277.344,216.742C276.949,215.934 276.77,214.816 276.82,213.43C276.875,211.719 277.543,209.219 278.785,205.906C279.863,203.008 280.801,200.937 281.594,199.715C281.953,199.191 282.188,198.902 282.293,198.887C282.313,198.977 282.223,199.281 281.969,199.82C280.223,203.746 279.09,206.914 278.566,209.324C278.352,210.281 278.262,211.145 278.262,211.918C278.262,212.996 278.461,213.809 278.855,214.348C279.16,214.797 279.469,214.977 279.793,214.906C280.477,214.762 281.18,214.023 281.879,212.691Z" style="fill:rgb(243,176,0);fill-rule:nonzero;"/>
                </g>
                <g transform="matrix(0.512803,0,0,0.512803,147.787,145.803)">
                    <path d="M252.289,283.379C252.289,284.187 251.945,285.086 251.297,286.113C250.633,287.176 249.75,288.074 248.688,288.832C248.273,289.121 248.023,289.281 247.949,289.281C247.934,289.281 247.934,289.266 247.934,289.246C247.934,289.191 248.113,288.957 248.453,288.578C250.219,286.672 251.102,285.395 251.102,284.746C251.102,284.152 250.813,283.844 250.254,283.844C249.93,283.844 249.66,283.918 249.406,284.098C249.211,284.223 249.102,284.297 249.047,284.297C249.012,284.277 248.977,284.242 248.922,284.242C248.941,284.168 248.977,284.008 249.031,283.738C249.301,282.422 249.965,281.777 250.992,281.777C251.855,281.777 252.289,282.316 252.289,283.379Z" style="fill:rgb(0,162,181);fill-rule:nonzero;"/>
                </g>
                <g transform="matrix(0.512803,0,0,0.512803,147.787,145.803)">
                    <path d="M360.199,296.59C360.199,297.398 359.855,298.301 359.207,299.324C358.543,300.387 357.66,301.289 356.598,302.043C356.184,302.332 355.934,302.492 355.859,302.492C355.844,302.492 355.844,302.477 355.844,302.457C355.844,302.402 356.023,302.168 356.363,301.793C358.129,299.883 359.012,298.605 359.012,297.957C359.012,297.363 358.723,297.059 358.164,297.059C357.84,297.059 357.57,297.129 357.316,297.309C357.121,297.437 357.012,297.508 356.957,297.508C356.922,297.488 356.887,297.453 356.832,297.453C356.852,297.383 356.887,297.219 356.941,296.949C357.211,295.637 357.875,294.988 358.902,294.988C359.766,294.988 360.199,295.527 360.199,296.59Z" style="fill:rgb(0,162,181);fill-rule:nonzero;"/>
                </g>
                <g transform="matrix(0.512803,0,0,0.512803,147.787,145.803)">
                    <path d="M288.938,317.453C288.938,318.262 288.594,319.16 287.945,320.187C287.281,321.25 286.398,322.148 285.336,322.906C284.922,323.195 284.672,323.355 284.598,323.355C284.578,323.355 284.578,323.336 284.578,323.32C284.578,323.266 284.762,323.031 285.102,322.652C286.867,320.746 287.746,319.469 287.746,318.82C287.746,318.227 287.461,317.918 286.902,317.918C286.578,317.918 286.309,317.992 286.055,318.172C285.859,318.297 285.75,318.371 285.695,318.371C285.66,318.352 285.625,318.316 285.57,318.316C285.59,318.242 285.625,318.082 285.68,317.812C285.949,316.496 286.613,315.852 287.641,315.852C288.504,315.852 288.938,316.391 288.938,317.453Z" style="fill:rgb(243,94,8);fill-rule:nonzero;"/>
                </g>
                <g transform="matrix(0.512803,0,0,0.512803,147.787,145.803)">
                    <path d="M322.957,449.266C320.148,449.375 318.563,449.375 318.188,449.285C318.098,449.266 318.059,449.23 318.059,449.176C318.098,449.031 319.23,448.617 321.48,447.914C323.566,447.395 326.898,446.133 331.469,444.152C333.883,442.73 337.355,440.41 341.891,437.168C345.008,434.918 348.191,433.121 351.449,431.77C355.43,430.148 359.117,429.773 362.52,430.617C363.328,430.816 364.34,431.301 365.563,432.094C366.77,432.867 367.848,433.371 368.801,433.605C370.547,434.055 372.133,433.73 373.555,432.687C374.742,431.57 375.91,430.457 377.102,429.34C377.965,428.547 378.613,428.207 379.098,428.332C379.332,428.387 379.387,428.621 379.277,429.051C379.133,429.664 378.594,430.617 377.676,431.895C377.207,432.543 378.773,433.301 382.375,434.199C382.754,434.289 382.984,434.254 383.094,434.074C383.164,434 383.164,433.047 383.129,431.211C383.094,430.707 383.488,430.078 384.281,429.32C385.633,427.937 386.371,427.379 386.516,427.613C387.145,428.672 387.254,430.078 386.82,431.84C386.441,433.301 385.688,434.918 384.516,436.703C383.348,438.465 382.391,439.492 381.672,439.762C379.781,440.445 377.352,439.547 374.348,437.027C370.766,439.313 367.613,440.105 364.859,439.418C364.051,439.223 363.078,438.754 361.926,437.996C360.773,437.258 359.891,436.828 359.281,436.664C354.602,435.496 349.289,436.539 343.352,439.781C338.977,442.371 334.586,444.945 330.176,447.52C327.637,448.602 325.223,449.176 322.957,449.266Z" style="fill:rgb(243,94,8);fill-rule:nonzero;"/>
                </g>
                <g transform="matrix(0.512803,0,0,0.512803,147.787,145.803)">
                    <path d="M246.113,404.465C246.113,405.273 245.773,406.172 245.125,407.199C244.457,408.262 243.574,409.16 242.516,409.918C242.102,410.207 241.848,410.367 241.777,410.367C241.758,410.367 241.758,410.352 241.758,410.332C241.758,410.277 241.938,410.043 242.281,409.664C244.043,407.758 244.926,406.48 244.926,405.832C244.926,405.238 244.637,404.934 244.078,404.934C243.758,404.934 243.484,405.004 243.234,405.184C243.035,405.309 242.93,405.383 242.875,405.383C242.84,405.363 242.801,405.328 242.746,405.328C242.766,405.254 242.801,405.094 242.855,404.824C243.125,403.508 243.793,402.863 244.816,402.863C245.684,402.863 246.113,403.402 246.113,404.465Z" style="fill:rgb(0,162,181);fill-rule:nonzero;"/>
                </g>
                <g transform="matrix(0.512803,0,0,0.512803,147.787,145.803)">
                    <path d="M311.293,292.379C311.293,293.187 310.949,294.086 310.301,295.113C309.637,296.176 308.754,297.074 307.691,297.832C307.277,298.121 307.027,298.281 306.953,298.281C306.938,298.281 306.938,298.266 306.938,298.246C306.938,298.191 307.117,297.957 307.457,297.578C309.223,295.672 310.105,294.395 310.105,293.746C310.105,293.152 309.816,292.844 309.258,292.844C308.934,292.844 308.664,292.918 308.41,293.098C308.215,293.223 308.105,293.297 308.051,293.297C308.016,293.277 307.98,293.242 307.926,293.242C307.945,293.168 307.98,293.008 308.035,292.738C308.305,291.422 308.969,290.777 309.996,290.777C310.859,290.777 311.293,291.316 311.293,292.379Z" style="fill:rgb(243,176,0);fill-rule:nonzero;"/>
                </g>
                <g transform="matrix(0.512803,0,0,0.512803,147.787,145.803)">
                    <path d="M370.547,326.758C369.883,325.516 368.945,324.344 367.703,323.246C366.211,322.004 364.879,321.395 363.707,321.395C360.848,321.395 359.426,322.168 359.426,323.734C359.426,325.551 361.297,326.469 365.074,326.469C367.938,326.469 369.758,326.559 370.547,326.758ZM337.246,364.754C341.676,364.754 347.059,362.867 353.359,359.086C358.508,356.027 363.547,352.281 368.496,347.855C372.926,343.805 375.426,340.977 376.004,339.359C375.551,336.746 372.203,335.453 365.957,335.453C358.273,335.453 354.438,332.84 354.438,327.641C354.438,323.59 355.734,320.043 358.324,316.984C360.738,314.121 363.238,312.699 365.852,312.699C368.84,312.699 371.645,314.609 374.238,318.461C376.523,321.773 378.055,325.426 378.828,329.387C379.172,331.148 379.332,332.949 379.332,334.77C379.332,341.086 377.695,346.109 374.438,349.816C370.078,354.695 365.203,359.285 359.801,363.586C350.621,370.875 342.883,374.531 336.563,374.531C331.234,374.531 327.098,372.531 324.16,368.57C321.57,365.043 320.273,360.687 320.273,355.469C320.273,348.645 321.695,341.68 324.559,334.57C325.207,333.074 325.676,332.336 325.926,332.336C326.051,332.391 326.125,332.555 326.125,332.824C326.125,333.273 325.996,334.031 325.727,335.055C323.711,342.094 322.723,347.402 322.723,350.984C322.723,354.371 323.566,357.23 325.242,359.57C327.727,363.027 331.723,364.754 337.246,364.754Z" style="fill:rgb(243,176,0);fill-rule:nonzero;"/>
                </g>
                <g transform="matrix(0.0455983,0,0,0.0455983,242.866,234.422)">
                    <path d="M1268.92,2273.64L1268.92,2274.21C1181.9,2238.14 1123.55,2189.17 1094.44,2127.05C1073.56,2082.68 1056.78,2007.21 1043.83,1900.72C1034.69,1953.12 1016.68,1995.87 989.566,2029.26C935.709,2095.86 870.515,2153.54 794.03,2202.12C705.962,2258.22 625.215,2286.33 552.115,2286.33C513.676,2286.33 484.504,2270.34 464.868,2238.58C448.269,2212.05 440.183,2179.24 440.183,2140.18C440.183,2059.61 460.606,1981.28 501.508,1905.16C513.238,1883.11 520.75,1872.16 524,1872.16C524.787,1872.56 525.181,1873.4 525.181,1874.81C525.181,1881.48 521.537,1893.82 514.25,1911.66C480.86,1992.23 464.25,2051.71 464.25,2090.19C464.25,2149.89 494.209,2179.86 554.14,2179.86C636.551,2179.86 725.204,2147.25 819.908,2082.11C893.806,2031.89 951.532,1978.87 992.816,1922.77C1005.56,1905.55 1012.24,1896.68 1012.63,1895.85C1016.68,1888.15 1018.69,1876.82 1018.69,1861.84C1018.69,1827.84 1009.2,1773.59 990.185,1699.3C975.385,1641.8 940.769,1553.76 886.338,1435.11C884.933,1432.07 886.338,1417.32 890.769,1390.61C894.413,1366.09 897.663,1348.08 900.7,1336.75C903.95,1323.57 908.999,1321.37 915.904,1330.29C980.479,1414.46 1027.84,1531.66 1058.19,1682.08C1073.56,1765.28 1089.16,1848.49 1104.76,1932.08C1123.16,2013.66 1147.67,2069.54 1178.42,2099.5C1184.72,2105.65 1191.09,2111.49 1197.52,2117.02C1199.49,2038.92 1243.41,1982.07 1329.64,1946.28L1329.74,1946.41C1357.54,1934.27 1412.15,1914.25 1493.23,1886.13C1317.51,1874.81 1198.06,1869.35 1134.72,1869.35C1117.1,1869.35 1110.6,1864.08 1115.08,1853.93C1121.15,1834.12 1132.3,1806.97 1148.46,1772.79L1148.69,1772.79C1153.74,1764.67 1169.11,1754.35 1194.64,1742C1232.5,1723.38 1262.42,1706.77 1284.7,1692.62C1328.62,1664.29 1371.93,1629.06 1414.86,1586.54C1440.16,1561.62 1478.65,1507.19 1530.66,1422.76C1570.94,1357.79 1600.9,1325.19 1620.75,1325.19C1634.73,1325.19 1648.08,1335.51 1660.82,1356.38C1676.59,1382.08 1684.5,1416.08 1684.5,1458.61C1684.5,1486.15 1681.47,1514.09 1675.58,1542.6C1671.54,1562.46 1666.88,1572.16 1661.44,1572.16C1654.54,1572.16 1651.12,1560.84 1651.12,1538.16C1651.12,1510.44 1645.06,1485.93 1632.88,1465.07C1621.95,1445.87 1610.43,1436.16 1598.26,1436.16C1579.24,1436.16 1552.72,1467.53 1518.71,1530.47C1472.98,1613.68 1436.52,1670.13 1409.41,1700.31C1385.07,1726.89 1359.36,1751.01 1332.19,1772.79L1337.32,1772.79L1818.09,1782.28C1840.37,1782.28 1849.68,1787.56 1846.04,1798.1L1820.33,1873.79C1818.09,1880.46 1808.38,1885.92 1791.21,1890.39C1620.75,1935.33 1466.92,1986.95 1329.64,2045.25L1329.51,2045.08C1268.48,2071.18 1238.17,2086.76 1238.17,2092.22C1238.17,2104.38 1248.66,2117.11 1269.93,2130.25C1299.1,2148.48 1356.56,2174.8 1442.18,2208.8C1448.69,2211.43 1451.5,2216.71 1450.49,2224.8L1442.18,2297.28C1441.39,2305.36 1436.34,2309.4 1426.8,2309.4C1380.68,2309.4 1328.23,2297.67 1269.31,2274.21L1268.92,2273.64Z" style="fill:rgb(243,176,0);fill-rule:nonzero;"/>
                </g>
                <g transform="matrix(0.512803,0,0,0.512803,147.787,145.803)">
                    <path d="M255.422,346.18C255.422,347.422 255.133,349.023 254.574,351.023C254.035,353 253.422,354.441 252.773,355.359C251.531,357.32 249.355,359.266 246.238,361.227C242.855,363.371 239.957,364.449 237.547,364.449C233.711,364.449 231.805,361.605 231.805,355.953C231.805,351.977 232.488,348.23 233.84,344.723C235.027,341.66 237.223,337.559 240.48,332.41C239.113,331.043 237.906,329.746 236.879,328.504C231.48,335.199 225.559,339.969 219.113,342.758C217.746,343.355 216.953,343.641 216.758,343.641C216.629,343.641 216.574,343.605 216.574,343.535C216.574,343.355 217.422,342.527 219.113,341.105C222.156,338.441 224.242,336.605 225.359,335.633C228.871,332.375 231.984,329.152 234.719,325.965C233.945,324.852 232.813,323.195 231.301,320.98C230.977,320.582 230.164,319.738 228.871,318.441C228.148,317.723 227.789,316.91 227.789,315.992C227.789,314.57 227.988,312.934 228.383,311.062C228.762,309.207 229.105,308.289 229.355,308.289C229.754,308.289 231.266,309.152 233.891,310.883C236.539,312.59 238.535,313.977 239.902,315.023C240.605,315.617 240.965,315.977 240.965,316.102L240.965,316.191C240.965,316.391 240.426,316.496 239.309,316.48C237.223,316.496 236.195,316.586 236.195,316.785C236.195,317.109 237.168,318.281 239.113,320.297C241.523,316.516 244.945,311.672 249.371,305.75C253.531,301 256.5,298.625 258.246,298.625C259.363,298.625 259.922,299.559 259.922,301.449C259.922,303.465 259.363,306.164 258.246,309.551C257.203,312.684 256.14,315.219 255.023,317.164C253.402,319.898 250.992,323.625 247.805,328.305C251.063,332.016 253.242,335.344 254.34,338.258C255.059,340.348 255.422,342.992 255.422,346.18ZM253.367,308.488C250.777,310.18 246.727,314.859 241.273,322.547C242.766,323.914 243.973,324.922 244.871,325.57C245.664,324.723 247.805,321.539 251.316,315.992C254.699,310.719 255.781,308.09 254.539,308.09C254.285,308.09 253.891,308.219 253.367,308.488ZM252.684,346.18C250.793,342.527 247.805,338.926 243.703,335.344C242.262,336.836 240.406,339.539 238.141,343.445C235.656,347.672 234.434,350.465 234.434,351.832C234.434,353.723 235.855,354.676 238.715,354.676C239.957,354.676 241.578,354.242 243.613,353.398C246.527,352.156 249.176,350.41 251.516,348.125C252.434,347.223 252.809,346.559 252.684,346.18Z" style="fill:rgb(243,176,0);fill-rule:nonzero;"/>
                </g>
                <g transform="matrix(0.512803,0,0,0.512803,147.787,145.803)">
                    <path d="M326.449,322.527C326.305,322.437 326.305,322.238 326.449,321.953L329.563,315.543C329.762,315.148 329.977,314.969 330.191,314.969C330.516,314.969 331.922,315.812 334.402,317.504C336.871,319.199 338.113,320.187 338.113,320.477C338.113,321.59 337.016,323.895 334.836,327.422C334.566,327.875 334.297,327.98 334.008,327.766C331.559,325.895 329.039,324.164 326.449,322.527Z" style="fill:rgb(0,162,181);fill-rule:nonzero;"/>
                </g>
                <g transform="matrix(0.0455983,0,0,0.0455983,242.866,234.422)">
                    <path d="M983.987,3140.2C944.979,3140.08 914.498,3131.95 893.007,3115.91C862.035,3092.8 840.994,3050.1 829.838,2987.37C824.17,2954.95 820.346,2903.55 818.895,2833.7C817.096,2744.04 811.034,2648.9 800.89,2548.08C793.817,2481.08 779.455,2410.22 757.57,2335.14C757.57,2317.14 764.869,2290.38 779.455,2254.97C783.099,2246.05 786.136,2241.79 788.149,2241.79C790.387,2241.79 793.423,2245.44 797.067,2252.73C820.346,2298.5 837.969,2375.82 849.698,2484.5C856.547,2548.91 861.822,2635.54 865.072,2744.22C868.322,2842 871.527,2899.52 874.384,2917.13C883.088,2968.31 900.081,3002.14 924.991,3018.13C937.733,3026.2 957.807,3030.3 984.91,3030.3L985.553,3030.3C1040.28,3030.02 1131.17,2994.56 1258.38,2923.81C1144.42,2905.35 1031.48,2892 919.109,2883.09C897.843,2881.29 887.35,2878.25 887.35,2873.82C887.35,2872.76 887.519,2871.36 888.351,2869.95C897.056,2851.33 910.011,2826.02 926.791,2794.25L927.015,2794.25C935.315,2781.07 957.594,2767.33 993.829,2752.96C1054.55,2729.46 1092.19,2714.08 1106.38,2706.79C1154.75,2683.12 1195.25,2653.33 1227.62,2617.93C1256.58,2583.92 1285.53,2549.53 1314.48,2515.08C1337.94,2488.16 1358.4,2474.62 1376.03,2474.62C1393.2,2474.62 1403.92,2488.55 1408.4,2516.71C1415.69,2560.85 1424.38,2592.22 1434.71,2611.24C1466.08,2668.75 1509.39,2697.48 1564.26,2697.48C1617.9,2697.48 1665.09,2683.29 1705.14,2655.17C1721.36,2643.84 1757.78,2609.84 1814.49,2552.95C1821.34,2546.05 1828.02,2542.62 1834.31,2542.62C1844.01,2542.62 1846.87,2549.09 1842.38,2562.26C1838.16,2575.62 1835.92,2587.74 1835.92,2599.08C1835.92,2624.38 1846.25,2644.02 1867.12,2657.98C1886.93,2671.16 1912.45,2677.85 1944.03,2677.85C1989.38,2677.85 2026.81,2658.82 2056.59,2620.56C2075.22,2592 2093.84,2563.27 2112.42,2534.32C2119.15,2527.03 2124.59,2523.38 2129.03,2523.38C2134.13,2523.38 2136.71,2527.43 2136.71,2535.55C2136.71,2538.76 2136.14,2542.41 2135.14,2546.45C2127.63,2577.42 2123.97,2591.61 2123.97,2588.75C2123.97,2601.93 2131.48,2614.68 2146.64,2627.01C2162.64,2640.59 2180.87,2647.49 2200.89,2647.49C2225.41,2647.49 2241.57,2640.81 2249.26,2627.63C2249.26,2625 2245.67,2620.56 2238.76,2613.88C2231.87,2607.38 2228.45,2602.33 2228.45,2599.08C2228.45,2594.86 2236.13,2568.94 2251.33,2521.76C2253.92,2513.67 2256.78,2509.81 2259.59,2509.81C2266.48,2509.81 2273.56,2519.57 2280.46,2539.37C2286.34,2556.6 2289.37,2569.56 2289.37,2578.25C2289.37,2623.99 2280.28,2662.64 2262.45,2694.05C2240,2733.32 2207.18,2752.96 2163.65,2752.96C2132.89,2752.96 2104.17,2729.24 2077.41,2682.11C2038.14,2752.74 1986.74,2788.15 1923.17,2788.15C1875.6,2788.15 1842.38,2773.78 1823.76,2745.23C1812.42,2727.22 1805.97,2700.73 1804.56,2665.68C1804.17,2661.63 1802.32,2659.62 1799.07,2659.62C1793.22,2659.62 1787.34,2663.08 1781.45,2669.94C1745.03,2712.46 1721.36,2738.38 1710.81,2747.47C1664.25,2787.36 1615.49,2807.39 1564.26,2807.39L1563.43,2807.39C1492.82,2807.16 1439.63,2777.59 1403.92,2718.92C1392.19,2699.51 1382.09,2670.33 1373.78,2631.11C1367.11,2599.91 1361.44,2584.54 1356.79,2584.54C1334.73,2584.54 1306.18,2604.17 1271.16,2643.62C1215.06,2706.57 1163.27,2756.78 1115.69,2794.25L1116.83,2794.45C1141.41,2798.77 1205.77,2808.24 1309.82,2822.59C1443.81,2839.6 1551.13,2848.07 1631.47,2848.07C1652.52,2848.07 1662.85,2850.09 1662.85,2854.58C1662.85,2856.38 1661.84,2859.63 1659.59,2863.89L1620.54,2939.8C1616.49,2947.88 1611.62,2951.92 1605.77,2951.92C1482.91,2951.92 1376.81,2970.37 1287.95,3007.19C1266.68,3016.11 1209.62,3044.43 1116.7,3092.41C1054.76,3124.21 1011.01,3140.21 984.91,3140.21L983.987,3140.2Z" style="fill:rgb(0,162,181);fill-rule:nonzero;"/>
                </g>
                <g transform="matrix(0.512803,0,0,0.512803,147.787,145.803)">
                    <path d="M286.688,388.012C286.688,394.059 285.316,398.648 282.582,401.781C278.281,406.785 271.961,411.645 263.645,416.324C253.098,422.195 243.27,425.129 234.16,425.129C221.922,425.129 213.496,419.133 208.871,407.145C207.973,404.805 207.523,401.816 207.523,398.164C207.523,395.75 207.703,393.32 208.098,390.836C208.691,387.203 209.504,383.996 210.547,381.262C210.871,380.434 211.195,380 211.52,380C211.844,380 211.914,380.559 211.715,381.656C211.32,383.352 210.926,385.043 210.547,386.734C209.898,389.738 209.574,391.953 209.574,393.375C209.574,398.324 211.23,402.879 214.543,407.039C219.043,412.582 225.539,415.355 234.07,415.355C241.543,415.355 249.48,413.59 257.887,410.078C264.652,407.273 270.738,403.762 276.137,399.531C281.016,395.75 283.465,393.051 283.465,391.434C283.465,391.16 282.457,389.055 280.441,385.078C278.027,380.398 276.227,375.824 275.059,371.398C274.609,369.902 274.066,368.895 273.457,368.375C272.844,367.852 272.539,367.312 272.539,366.719C272.539,366.27 272.988,363.855 273.887,359.5C274.031,358.707 274.23,358.328 274.48,358.328C274.754,358.328 275.074,358.508 275.453,358.906C276.695,360.273 279.359,362.973 283.465,367.004C284.113,367.672 284.438,368.195 284.438,368.57C284.438,369.039 284.059,369.254 283.266,369.254C282.422,369.254 281.16,369.004 279.469,368.48C279.594,369.004 280.961,371.867 283.555,377.066C285.641,381.297 286.688,384.953 286.688,388.012Z" style="fill:rgb(0,162,181);fill-rule:nonzero;"/>
                </g>
                <g transform="matrix(0.512803,0,0,0.512803,147.787,145.803)">
                    <path d="M262.906,382.449C262.766,382.359 262.766,382.16 262.906,381.875L266.023,375.465C266.219,375.07 266.438,374.891 266.652,374.891C266.977,374.891 268.379,375.734 270.863,377.426C273.328,379.121 274.57,380.109 274.57,380.398C274.57,381.516 273.473,383.816 271.297,387.344C271.027,387.797 270.758,387.902 270.469,387.687C268.02,385.816 265.5,384.086 262.906,382.449Z" style="fill:rgb(243,94,8);fill-rule:nonzero;"/>
                </g>
                <g transform="matrix(0.512803,0,0,0.512803,147.787,145.803)">
                    <path d="M295.523,417.621C295.379,417.531 295.379,417.332 295.523,417.047L298.637,410.637C298.836,410.242 299.051,410.062 299.27,410.062C299.594,410.062 300.996,410.906 303.48,412.602C305.945,414.293 307.188,415.281 307.188,415.57C307.188,416.687 306.09,418.988 303.91,422.52C303.641,422.969 303.371,423.074 303.086,422.859C300.637,420.988 298.117,419.258 295.523,417.621Z" style="fill:rgb(243,94,8);fill-rule:nonzero;"/>
                </g>
            </g>
        </g>
    </g>
</svg>
